<?xml version="1.0" encoding="UTF-8"?><!DOCTYPE score-partwise PUBLIC "-//Recordare//DTD MusicXML 1.0 Partwise//EN"                                "http://www.musicxml.org/dtds/partwise.dtd"><score-partwise>  <movement-title>Tout par compas</movement-title>  <identification>    <creator type="composer">Magister Baude Cordier</creator>    <rights>©1999-2006 Jason Stoessel. All rights reserved.</rights>    <encoding>      <software>Finale for Macintosh</software>      <software>Dolet Light for Finale 2006</software>      <encoding-date>2006-11-07</encoding-date>    </encoding>  </identification>  <part-list>    <part-group number="1" type="start">      <group-symbol>bracket</group-symbol>      <group-barline>Mensurstrich</group-barline>    </part-group>    <score-part id="P1">      <part-name>C1</part-name>      <score-instrument id="P1-I3">        <instrument-name>Clarinet</instrument-name>      </score-instrument>      <midi-instrument id="P1-I3">        <midi-channel>3</midi-channel>        <midi-program>72</midi-program>      </midi-instrument>    </score-part>    <score-part id="P2">      <part-name>C2</part-name>      <score-instrument id="P2-I13">        <instrument-name>Oboe</instrument-name>      </score-instrument>      <midi-instrument id="P2-I13">        <midi-channel>13</midi-channel>        <midi-program>69</midi-program>      </midi-instrument>    </score-part>    <score-part id="P3">      <part-name>T</part-name>      <score-instrument id="P3-I16">        <instrument-name>Violin</instrument-name>      </score-instrument>      <midi-instrument id="P3-I16">        <midi-channel>15</midi-channel>        <midi-program>41</midi-program>      </midi-instrument>    </score-part>    <part-group number="1" type="stop"/>  </part-list>  <!--=========================================================-->  <part id="P1">    <measure number="1">      <attributes>        <divisions>24</divisions>        <key>          <fifths>0</fifths>          <mode>major</mode>        </key>        <clef>          <sign>G</sign>          <line>2</line>        </clef>      </attributes>      <sound tempo="96"/>      <note>        <rest/>        <duration>36</duration>        <voice>1</voice>        <type>quarter</type>        <dot/>      </note>      <note>        <rest/>        <duration>12</duration>        <voice>1</voice>        <type>eighth</type>      </note>      <note>        <rest/>        <duration>12</duration>        <voice>1</voice>        <type>eighth</type>      </note>      <note>        <pitch>          <step>C</step>          <octave>5</octave>        </pitch>        <duration>12</duration>        <voice>1</voice>        <type>eighth</type>        <stem>down</stem>      </note>    </measure>    <!--=======================================================-->    <measure number="2">      <note>        <pitch>          <step>C</step>          <octave>5</octave>        </pitch>        <duration>48</duration>        <voice>1</voice>        <type>half</type>        <stem>down</stem>      </note>      <note>        <pitch>          <step>A</step>          <octave>4</octave>        </pitch>        <duration>24</duration>        <voice>1</voice>        <type>quarter</type>        <stem>up</stem>      </note>      <note>        <pitch>          <step>F</step>          <octave>4</octave>        </pitch>        <duration>24</duration>        <voice>1</voice>        <type>quarter</type>        <stem>up</stem>        <notations>          <slide line-type="solid" number="1" type="start"/>        </notations>      </note>      <note>        <pitch>          <step>G</step>          <octave>4</octave>        </pitch>        <duration>48</duration>        <voice>1</voice>        <type>half</type>        <stem>up</stem>      </note>      <note>        <pitch>          <step>E</step>          <octave>4</octave>        </pitch>        <duration>48</duration>        <voice>1</voice>        <type>half</type>        <stem>up</stem>        <notations>          <slide line-type="solid" number="1" type="stop"/>        </notations>      </note>      <note>        <pitch>          <step>D</step>          <octave>4</octave>        </pitch>        <duration>24</duration>        <voice>1</voice>        <type>quarter</type>        <stem>up</stem>      </note>    </measure>    <!--=======================================================-->    <measure number="3">      <barline location="left">        <bar-style>heavy-light</bar-style>        <repeat direction="forward"/>      </barline>      <direction placement="below">        <direction-type>          <words default-y="-24" font-family="FiguraeMensuris" font-size="36" relative-x="-28">@</words>        </direction-type>      </direction>      <note>        <pitch>          <step>F</step>          <octave>4</octave>        </pitch>        <duration>72</duration>        <voice>1</voice>        <type>half</type>        <dot/>        <stem>up</stem>      </note>      <note>        <rest/>        <duration>72</duration>        <voice>1</voice>        <type>half</type>        <dot/>      </note>      <note>        <pitch>          <step>G</step>          <octave>4</octave>        </pitch>        <duration>48</duration>        <voice>1</voice>        <type>half</type>        <stem>up</stem>        <notations>          <slide line-type="solid" number="1" type="start"/>        </notations>        <lyric number="1">          <syllabic>single</syllabic>          <text>1.4.7.</text>          <elision/>          <syllabic>single</syllabic>          <text>Tout</text>        </lyric>        <lyric number="2">          <syllabic>single</syllabic>          <text>3.</text>          <elision/>          <syllabic>begin</syllabic>          <text>Re</text>        </lyric>        <lyric number="3">          <syllabic>single</syllabic>          <text>5.</text>          <elision/>          <syllabic>single</syllabic>          <text>Trois</text>        </lyric>      </note>      <note>        <pitch>          <step>A</step>          <octave>4</octave>        </pitch>        <duration>48</duration>        <voice>1</voice>        <type>half</type>        <stem>up</stem>        <notations>          <slide line-type="solid" number="1" type="stop"/>        </notations>      </note>    </measure>    <!--=======================================================-->    <measure number="4">      <note print-object="no">        <cue/>        <pitch>          <step>A</step>          <octave>4</octave>        </pitch>        <duration>24</duration>        <voice>1</voice>        <type size="full">quarter</type>        <stem>up</stem>      </note>      <note>        <pitch>          <step>F</step>          <octave>4</octave>        </pitch>        <duration>24</duration>        <voice>1</voice>        <type>quarter</type>        <stem>up</stem>        <notations>          <slide line-type="solid" number="1" type="start"/>        </notations>      </note>      <note>        <pitch>          <step>C</step>          <octave>5</octave>        </pitch>        <duration>24</duration>        <voice>1</voice>        <type>quarter</type>        <stem>down</stem>        <notations>          <slide line-type="solid" number="1" type="stop"/>        </notations>      </note>      <note>        <pitch>          <step>C</step>          <octave>5</octave>        </pitch>        <duration>36</duration>        <voice>1</voice>        <type>quarter</type>        <dot/>        <stem>down</stem>        <notations>          <slide line-type="solid" number="1" type="start"/>        </notations>        <lyric number="1">          <syllabic>single</syllabic>          <text>par</text>        </lyric>        <lyric number="2">          <syllabic>middle</syllabic>          <text>gar</text>        </lyric>        <lyric number="3">          <syllabic>single</syllabic>          <text>temps</text>        </lyric>      </note>      <note>        <pitch>          <step>B</step>          <octave>4</octave>        </pitch>        <duration>24</duration>        <voice>1</voice>        <type>quarter</type>        <stem>down</stem>        <notations>          <slide line-type="solid" number="1" type="stop"/>        </notations>      </note>      <note>        <pitch>          <step>A</step>          <octave>4</octave>        </pitch>        <duration>12</duration>        <voice>1</voice>        <type>eighth</type>        <stem>up</stem>      </note>    </measure>    <!--=======================================================-->    <measure number="5">      <print new-system="yes"/>      <note>        <pitch>          <step>G</step>          <octave>4</octave>        </pitch>        <duration>24</duration>        <voice>1</voice>        <type>quarter</type>        <stem>up</stem>        <notations>          <slide line-type="solid" number="1" type="start"/>        </notations>        <lyric number="1">          <syllabic>begin</syllabic>          <text>com</text>        </lyric>        <lyric number="2">          <syllabic>end</syllabic>          <text>de</text>        </lyric>        <lyric number="3">          <syllabic>begin</syllabic>          <text>en</text>        </lyric>      </note>      <note>        <pitch>          <step>E</step>          <octave>4</octave>        </pitch>        <duration>24</duration>        <voice>1</voice>        <type>quarter</type>        <stem>up</stem>        <notations>          <slide line-type="solid" number="1" type="stop"/>        </notations>      </note>      <note>        <pitch>          <step>D</step>          <octave>4</octave>        </pitch>        <duration>24</duration>        <voice>1</voice>        <type>quarter</type>        <stem>up</stem>      </note>      <note>        <pitch>          <step>D</step>          <octave>4</octave>        </pitch>        <duration>48</duration>        <voice>1</voice>        <type>half</type>        <stem>up</stem>        <lyric number="1">          <syllabic>end</syllabic>          <text>pas</text>        </lyric>        <lyric number="2">          <syllabic>single</syllabic>          <text>com</text>        </lyric>        <lyric number="3">          <syllabic>end</syllabic>          <text>tiers</text>        </lyric>      </note>      <note>        <rest/>        <duration>24</duration>        <voice>1</voice>        <type>quarter</type>      </note>    </measure>    <!--=======================================================-->    <measure number="6">      <note>        <pitch>          <step>C</step>          <octave>4</octave>        </pitch>        <duration>48</duration>        <voice>1</voice>        <type>half</type>        <stem>up</stem>        <lyric number="1">          <syllabic>single</syllabic>          <text>suy</text>        </lyric>        <lyric number="2">          <syllabic>single</syllabic>          <text>suy</text>        </lyric>        <lyric number="3">          <syllabic>single</syllabic>          <text>par</text>        </lyric>      </note>      <note>        <pitch>          <step>E</step>          <octave>4</octave>        </pitch>        <duration>12</duration>        <voice>1</voice>        <type>eighth</type>        <stem>up</stem>        <beam number="1">begin</beam>      </note>      <note>        <pitch>          <step>F</step>          <octave>4</octave>        </pitch>        <duration>12</duration>        <voice>1</voice>        <type>eighth</type>        <stem>up</stem>        <beam number="1">end</beam>      </note>      <note>        <pitch>          <step>G</step>          <octave>4</octave>        </pitch>        <duration>12</duration>        <voice>1</voice>        <type>eighth</type>        <stem>up</stem>        <lyric number="1">          <syllabic>begin</syllabic>          <text>com</text>        </lyric>        <lyric number="2">          <syllabic>begin</syllabic>          <text>dis</text>        </lyric>        <lyric number="3">          <syllabic>single</syllabic>          <text>toys</text>        </lyric>      </note>      <note>        <pitch>          <step>B</step>          <octave>4</octave>        </pitch>        <duration>24</duration>        <voice>1</voice>        <type>quarter</type>        <stem>down</stem>      </note>      <note>        <pitch>          <step>C</step>          <octave>5</octave>        </pitch>        <duration>12</duration>        <voice>1</voice>        <type>eighth</type>        <stem>down</stem>      </note>      <note>        <pitch>          <step>D</step>          <octave>5</octave>        </pitch>        <duration>24</duration>        <voice>1</voice>        <type>quarter</type>        <stem>down</stem>      </note>    </measure>    <!--=======================================================-->    <measure number="7">      <note>        <pitch>          <step>A</step>          <octave>4</octave>        </pitch>        <duration>8</duration>        <voice>1</voice>        <type>eighth</type>        <time-modification>          <actual-notes>3</actual-notes>          <normal-notes>2</normal-notes>          <normal-type>quarter</normal-type>          <normal-dot/>        </time-modification>        <stem>up</stem>        <beam number="1">begin</beam>        <notations>          <tuplet bracket="no" number="1" show-number="none" type="start"/>        </notations>        <lyric number="1">          <syllabic>middle</syllabic>          <text>po</text>        </lyric>        <lyric number="2">          <syllabic>middle</syllabic>          <text>po</text>        </lyric>        <lyric number="3">          <syllabic>begin</syllabic>          <text>po</text>        </lyric>      </note>      <note>        <pitch>          <step>B</step>          <octave>4</octave>        </pitch>        <duration>8</duration>        <voice>1</voice>        <type>eighth</type>        <time-modification>          <actual-notes>3</actual-notes>          <normal-notes>2</normal-notes>          <normal-type>quarter</normal-type>          <normal-dot/>        </time-modification>        <stem>up</stem>        <beam number="1">end</beam>      </note>      <note>        <pitch>          <step>A</step>          <octave>4</octave>        </pitch>        <duration>16</duration>        <voice>1</voice>        <type>quarter</type>        <time-modification>          <actual-notes>3</actual-notes>          <normal-notes>2</normal-notes>          <normal-type>quarter</normal-type>          <normal-dot/>        </time-modification>        <stem>up</stem>      </note>      <note>        <pitch>          <step>D</step>          <octave>5</octave>        </pitch>        <duration>8</duration>        <voice>1</voice>        <type>eighth</type>        <time-modification>          <actual-notes>3</actual-notes>          <normal-notes>2</normal-notes>          <normal-type>quarter</normal-type>          <normal-dot/>        </time-modification>        <stem>down</stem>      </note>      <direction placement="below">        <direction-type>          <words default-y="-29" font-family="FiguraeMensuris" font-size="27">Ç</words>        </direction-type>        <offset>-3</offset>      </direction>      <note>        <pitch>          <step>B</step>          <octave>4</octave>        </pitch>        <duration>16</duration>        <voice>1</voice>        <type>quarter</type>        <time-modification>          <actual-notes>3</actual-notes>          <normal-notes>2</normal-notes>          <normal-type>quarter</normal-type>          <normal-dot/>        </time-modification>        <stem>down</stem>      </note>      <note>        <pitch>          <step>C</step>          <octave>5</octave>        </pitch>        <duration>8</duration>        <voice>1</voice>        <type>eighth</type>        <time-modification>          <actual-notes>3</actual-notes>          <normal-notes>2</normal-notes>          <normal-type>quarter</normal-type>          <normal-dot/>        </time-modification>        <stem>down</stem>        <beam number="1">begin</beam>      </note>      <note>        <pitch>          <step>A</step>          <octave>4</octave>        </pitch>        <duration>8</duration>        <voice>1</voice>        <type>eighth</type>        <time-modification>          <actual-notes>3</actual-notes>          <normal-notes>2</normal-notes>          <normal-type>quarter</normal-type>          <normal-dot/>        </time-modification>        <stem>down</stem>        <beam number="1">end</beam>        <notations>          <tuplet number="1" type="stop"/>        </notations>      </note>      <note relative-x="11">        <pitch>          <step>C</step>          <octave>5</octave>        </pitch>        <duration>72</duration>        <voice>1</voice>        <type>quarter</type>        <dot/>        <time-modification>          <actual-notes>3</actual-notes>          <normal-notes>6</normal-notes>          <normal-type>eighth</normal-type>        </time-modification>        <stem>down</stem>        <notations>          <tuplet bracket="no" number="1" show-number="none" type="start">            <tuplet-actual>              <tuplet-number>3</tuplet-number>              <tuplet-type>eighth</tuplet-type>            </tuplet-actual>            <tuplet-normal>              <tuplet-number>3</tuplet-number>              <tuplet-type>quarter</tuplet-type>            </tuplet-normal>          </tuplet>          <tuplet number="1" type="stop"/>        </notations>        <lyric number="1">          <syllabic>end</syllabic>          <text>ses</text>        </lyric>        <lyric number="2">          <syllabic>end</syllabic>          <text>ses,</text>        </lyric>        <lyric number="3">          <syllabic>end</syllabic>          <text>ses</text>        </lyric>      </note>    </measure>    <!--=======================================================-->    <measure number="8">      <note>        <rest/>        <duration>12</duration>        <voice>1</voice>        <type>eighth</type>      </note>      <note>        <rest/>        <duration>12</duration>        <voice>1</voice>        <type>eighth</type>      </note>      <note>        <pitch>          <step>G</step>          <octave>4</octave>        </pitch>        <duration>12</duration>        <voice>1</voice>        <type>eighth</type>        <stem>up</stem>      </note>      <note>        <pitch>          <step>F</step>          <octave>4</octave>        </pitch>        <duration>12</duration>        <voice>1</voice>        <type>eighth</type>        <stem>up</stem>        <beam number="1">begin</beam>      </note>      <note>        <pitch>          <step>E</step>          <octave>4</octave>        </pitch>        <duration>12</duration>        <voice>1</voice>        <type>eighth</type>        <stem>up</stem>        <beam number="1">continue</beam>      </note>      <note>        <pitch>          <step>D</step>          <octave>4</octave>        </pitch>        <duration>12</duration>        <voice>1</voice>        <type>eighth</type>        <stem>up</stem>        <beam number="1">end</beam>      </note>    </measure>    <!--=======================================================-->    <measure number="9">      <print new-system="yes"/>      <note>        <pitch>          <step>A</step>          <octave>4</octave>        </pitch>        <duration>12</duration>        <voice>1</voice>        <type>eighth</type>        <stem>up</stem>      </note>      <note>        <rest/>        <duration>12</duration>        <voice>1</voice>        <type>eighth</type>      </note>      <note>        <pitch>          <step>C</step>          <octave>5</octave>        </pitch>        <duration>12</duration>        <voice>1</voice>        <type>eighth</type>        <stem>down</stem>      </note>      <note>        <pitch>          <step>C</step>          <octave>5</octave>        </pitch>        <duration>12</duration>        <voice>1</voice>        <type>eighth</type>        <stem>down</stem>      </note>      <note>        <pitch>          <step>B</step>          <octave>4</octave>        </pitch>        <duration>24</duration>        <voice>1</voice>        <type>quarter</type>        <stem>down</stem>      </note>    </measure>    <!--=======================================================-->    <measure number="10">      <note>        <pitch>          <step>A</step>          <octave>4</octave>        </pitch>        <duration>12</duration>        <voice>1</voice>        <type>eighth</type>        <stem>up</stem>      </note>      <note>        <rest/>        <duration>12</duration>        <voice>1</voice>        <type>eighth</type>      </note>      <note>        <pitch>          <step>D</step>          <octave>5</octave>        </pitch>        <duration>12</duration>        <voice>1</voice>        <type>eighth</type>        <stem>down</stem>        <lyric number="1">          <syllabic>single</syllabic>          <text>2.8.</text>          <elision/>          <syllabic>single</syllabic>          <text>En</text>        </lyric>        <lyric number="2">          <syllabic>single</syllabic>          <text>6.</text>          <elision/>          <syllabic>begin</syllabic>          <text>Cha</text>        </lyric>      </note>      <note>        <pitch>          <step>E</step>          <octave>5</octave>        </pitch>        <duration>12</duration>        <voice>1</voice>        <type>eighth</type>        <stem>down</stem>        <beam number="1">begin</beam>        <lyric number="1">          <syllabic>begin</syllabic>          <text>ces</text>        </lyric>        <lyric number="2">          <syllabic>end</syllabic>          <text>cer</text>        </lyric>      </note>      <note>        <pitch>          <step>D</step>          <octave>5</octave>        </pitch>        <duration>12</duration>        <voice>1</voice>        <type>eighth</type>        <stem>down</stem>        <beam number="1">continue</beam>      </note>      <note>        <pitch>          <step>C</step>          <octave>5</octave>        </pitch>        <duration>12</duration>        <voice>1</voice>        <type>eighth</type>        <stem>down</stem>        <beam number="1">end</beam>        <lyric number="1">          <syllabic>end</syllabic>          <text>te</text>        </lyric>        <lyric number="2">          <syllabic>single</syllabic>          <text>me</text>        </lyric>      </note>    </measure>    <!--=======================================================-->    <measure number="11">      <note>        <pitch>          <step>A</step>          <octave>4</octave>        </pitch>        <duration>24</duration>        <voice>1</voice>        <type>quarter</type>        <stem>up</stem>        <lyric number="1">          <syllabic>begin</syllabic>          <text>ro</text>        </lyric>        <lyric number="2">          <syllabic>single</syllabic>          <text>pues</text>        </lyric>      </note>      <note>        <pitch>          <step>G</step>          <octave>4</octave>        </pitch>        <duration>12</duration>        <voice>1</voice>        <type>eighth</type>        <stem>up</stem>        <lyric number="1">          <syllabic>end</syllabic>          <text>de</text>        </lyric>        <lyric number="2">          <syllabic>begin</syllabic>          <text>io</text>        </lyric>      </note>      <note>        <pitch>          <step>A</step>          <octave>4</octave>        </pitch>        <duration>12</duration>        <voice>1</voice>        <type>eighth</type>        <stem>up</stem>        <lyric number="1">          <syllabic>begin</syllabic>          <text>pro</text>        </lyric>        <lyric number="2">          <syllabic>middle</syllabic>          <text>yeu</text>        </lyric>      </note>      <note>        <pitch>          <step>F</step>          <octave>4</octave>        </pitch>        <duration>24</duration>        <voice>1</voice>        <type>quarter</type>        <stem>up</stem>        <lyric number="1">          <syllabic>middle</syllabic>          <text>pre</text>        </lyric>        <lyric number="2">          <syllabic>middle</syllabic>          <text>se</text>        </lyric>      </note>    </measure>    <!--=======================================================-->    <measure number="12">      <note>        <pitch>          <step>E</step>          <octave>4</octave>        </pitch>        <duration>36</duration>        <voice>1</voice>        <type>quarter</type>        <dot/>        <stem>up</stem>        <lyric number="1">          <syllabic>end</syllabic>          <text>ment</text>        </lyric>        <lyric number="2">          <syllabic>end</syllabic>          <text>ment</text>        </lyric>      </note>      <note>        <pitch>          <step>G</step>          <octave>4</octave>        </pitch>        <duration>12</duration>        <voice>1</voice>        <type>eighth</type>        <stem>up</stem>        <lyric number="1">          <syllabic>single</syllabic>          <text>pour</text>        </lyric>        <lyric number="2">          <syllabic>single</syllabic>          <text>s’en</text>        </lyric>      </note>      <note>        <pitch>          <step>F</step>          <octave>4</octave>        </pitch>        <duration>24</duration>        <voice>1</voice>        <type>quarter</type>        <stem>up</stem>        <lyric number="1">          <syllabic>single</syllabic>          <text>moy</text>        </lyric>        <lyric number="2">          <syllabic>begin</syllabic>          <text>chan</text>        </lyric>      </note>      <note>        <pitch>          <step>E</step>          <octave>4</octave>        </pitch>        <duration>24</duration>        <voice>1</voice>        <type>quarter</type>        <stem>up</stem>        <lyric number="1">          <syllabic>begin</syllabic>          <text>chan</text>        </lyric>        <lyric number="2">          <syllabic>end</syllabic>          <text>tant</text>        </lyric>      </note>    </measure>    <!--=======================================================-->    <measure number="13">      <print new-system="yes"/>      <note>        <pitch>          <step>D</step>          <octave>4</octave>        </pitch>        <duration>12</duration>        <voice>1</voice>        <type>eighth</type>        <stem>up</stem>        <lyric number="1">          <syllabic>end</syllabic>          <text>ter</text>        </lyric>        <lyric number="2">          <syllabic>single</syllabic>          <text>as</text>        </lyric>      </note>      <note>        <rest/>        <duration>12</duration>        <voice>1</voice>        <type>eighth</type>      </note>      <note>        <pitch>          <step>D</step>          <octave>5</octave>        </pitch>        <duration>12</duration>        <voice>1</voice>        <type>eighth</type>        <stem>down</stem>        <lyric number="1">          <syllabic>single</syllabic>          <text>plus</text>        </lyric>        <lyric number="2">          <syllabic>single</syllabic>          <text>vray</text>        </lyric>      </note>      <note>        <pitch>          <step>E</step>          <octave>5</octave>        </pitch>        <duration>24</duration>        <voice>1</voice>        <type>quarter</type>        <stem>down</stem>        <lyric number="1">          <syllabic>begin</syllabic>          <text>seu</text>        </lyric>        <lyric number="2">          <syllabic>begin</syllabic>          <text>sen</text>        </lyric>      </note>      <note>        <pitch>          <step>D</step>          <octave>5</octave>        </pitch>        <duration>12</duration>        <voice>1</voice>        <type>eighth</type>        <stem>down</stem>      </note>    </measure>    <!--=======================================================-->    <measure number="14">      <note>        <pitch>          <step>D</step>          <octave>5</octave>        </pitch>        <duration>24</duration>        <voice>1</voice>        <type>quarter</type>        <stem>down</stem>        <lyric number="1">          <syllabic>middle</syllabic>          <text>re</text>        </lyric>        <lyric number="2">          <syllabic>middle</syllabic>          <text>te</text>        </lyric>      </note>      <note>        <pitch>          <step>C</step>          <octave>5</octave>        </pitch>        <duration>12</duration>        <voice>1</voice>        <type>eighth</type>        <stem>down</stem>      </note>      <note>        <pitch>          <step>D</step>          <octave>5</octave>        </pitch>        <duration>36</duration>        <voice>1</voice>        <type>quarter</type>        <dot/>        <stem>down</stem>        <lyric number="1">          <syllabic>end</syllabic>          <text>ment</text>        </lyric>        <lyric number="2">          <syllabic>end</syllabic>          <text>ment.</text>        </lyric>      </note>    </measure>    <!--=======================================================-->    <measure number="15">      <direction placement="above">        <direction-type>          <bracket default-y="8" line-end="down" number="1" type="start"/>        </direction-type>      </direction>      <direction placement="above">        <direction-type>          <bracket default-y="7" line-end="down" number="1" type="stop"/>        </direction-type>        <offset>29</offset>      </direction>      <note>        <pitch>          <step>C</step>          <octave>5</octave>        </pitch>        <duration>24</duration>        <voice>1</voice>        <type>quarter</type>        <stem>down</stem>      </note>      <note>        <pitch>          <step>B</step>          <octave>4</octave>        </pitch>        <duration>24</duration>        <voice>1</voice>        <type>quarter</type>        <stem>down</stem>      </note>      <note>        <pitch>          <step>A</step>          <octave>4</octave>        </pitch>        <duration>24</duration>        <voice>1</voice>        <type>quarter</type>        <stem>up</stem>      </note>    </measure>    <!--=======================================================-->    <measure number="16">      <note>        <pitch>          <step>G</step>          <octave>4</octave>        </pitch>        <duration>36</duration>        <voice>1</voice>        <type>quarter</type>        <dot/>        <stem>up</stem>      </note>    </measure>    <!--=======================================================-->    <measure number="17">      <print new-page="yes"/>      <note>        <rest/>        <duration>36</duration>        <voice>1</voice>        <type>quarter</type>        <dot/>      </note>      <note>        <rest/>        <duration>12</duration>        <voice>1</voice>        <type>eighth</type>      </note>      <note>        <rest/>        <duration>12</duration>        <voice>1</voice>        <type>eighth</type>      </note>      <note>        <pitch>          <step>C</step>          <octave>5</octave>        </pitch>        <duration>12</duration>        <voice>1</voice>        <type>eighth</type>        <stem>down</stem>      </note>    </measure>    <!--=======================================================-->    <measure number="18">      <note>        <pitch>          <step>C</step>          <octave>5</octave>        </pitch>        <duration>48</duration>        <voice>1</voice>        <type>half</type>        <stem>down</stem>      </note>      <note>        <pitch>          <step>A</step>          <octave>4</octave>        </pitch>        <duration>24</duration>        <voice>1</voice>        <type>quarter</type>        <stem>up</stem>      </note>      <note>        <pitch>          <step>F</step>          <octave>4</octave>        </pitch>        <duration>24</duration>        <voice>1</voice>        <type>quarter</type>        <stem>up</stem>      </note>      <note>        <pitch>          <step>G</step>          <octave>4</octave>        </pitch>        <duration>48</duration>        <voice>1</voice>        <type>half</type>        <stem>up</stem>      </note>      <note>        <pitch>          <step>E</step>          <octave>4</octave>        </pitch>        <duration>48</duration>        <voice>1</voice>        <type>half</type>        <stem>up</stem>      </note>      <note>        <pitch>          <step>D</step>          <octave>4</octave>        </pitch>        <duration>24</duration>        <voice>1</voice>        <type>quarter</type>        <stem>up</stem>      </note>      <barline location="right">        <bar-style>light-heavy</bar-style>        <repeat direction="backward"/>      </barline>    </measure>    <!--=======================================================-->    <measure number="19">      <direction placement="below">        <direction-type>          <words default-y="-24" font-family="FiguraeMensuris" font-size="36" relative-x="-29">@</words>        </direction-type>      </direction>      <note>        <pitch>          <step>F</step>          <octave>4</octave>        </pitch>        <duration>72</duration>        <voice>1</voice>        <type>half</type>        <dot/>        <stem>up</stem>        <notations>          <fermata type="upright"/>        </notations>      </note>      <barline location="right">        <bar-style>light-heavy</bar-style>      </barline>    </measure>  </part>  <!--=========================================================-->  <part id="P2">    <measure number="1">      <attributes>        <divisions>24</divisions>        <key>          <fifths>0</fifths>          <mode>major</mode>        </key>        <clef>          <sign>G</sign>          <line>2</line>        </clef>      </attributes>      <sound tempo="96"/>      <note relative-x="24">        <rest/>        <duration>72</duration>        <voice>1</voice>        <type>half</type>        <dot/>        <notations>          <articulations>            <other-articulation placement="below" relative-x="-16">[</other-articulation>            <other-articulation placement="below" relative-x="22">]</other-articulation>          </articulations>        </notations>      </note>    </measure>    <!--=======================================================-->    <measure number="2">      <note>        <rest/>        <duration>36</duration>        <voice>1</voice>        <type>quarter</type>        <dot/>        <notations>          <articulations>            <other-articulation placement="below" relative-x="-17">[</other-articulation>            <other-articulation placement="below" relative-x="22">]</other-articulation>          </articulations>        </notations>      </note>      <note>        <rest/>        <duration>36</duration>        <voice>1</voice>        <type>quarter</type>        <dot/>      </note>      <note>        <rest/>        <duration>12</duration>        <voice>1</voice>        <type>eighth</type>      </note>      <note>        <rest/>        <duration>12</duration>        <voice>1</voice>        <type>eighth</type>      </note>      <note>        <pitch>          <step>C</step>          <octave>5</octave>        </pitch>        <duration>12</duration>        <voice>1</voice>        <type>eighth</type>        <stem>down</stem>      </note>    </measure>    <!--=======================================================-->    <measure number="3">      <barline location="left">        <bar-style>heavy-light</bar-style>        <repeat direction="forward"/>      </barline>      <note>        <pitch>          <step>C</step>          <octave>5</octave>        </pitch>        <duration>48</duration>        <voice>1</voice>        <type>half</type>        <stem>down</stem>      </note>      <note>        <pitch>          <step>A</step>          <octave>4</octave>        </pitch>        <duration>24</duration>        <voice>1</voice>        <type>quarter</type>        <stem>up</stem>      </note>      <note>        <pitch>          <step>F</step>          <octave>4</octave>        </pitch>        <duration>24</duration>        <voice>1</voice>        <type>quarter</type>        <stem>up</stem>      </note>      <note>        <pitch>          <step>G</step>          <octave>4</octave>        </pitch>        <duration>48</duration>        <voice>1</voice>        <type>half</type>        <stem>up</stem>      </note>      <note>        <pitch>          <step>E</step>          <octave>4</octave>        </pitch>        <duration>48</duration>        <voice>1</voice>        <type>half</type>        <stem>up</stem>      </note>      <note>        <pitch>          <step>D</step>          <octave>4</octave>        </pitch>        <duration>24</duration>        <voice>1</voice>        <type>quarter</type>        <stem>up</stem>      </note>    </measure>    <!--=======================================================-->    <measure number="4">      <direction placement="below">        <direction-type>          <words default-y="-25" font-family="FiguraeMensuris" font-size="36" relative-x="-27">@</words>        </direction-type>      </direction>      <note>        <pitch>          <step>F</step>          <octave>4</octave>        </pitch>        <duration>72</duration>        <voice>1</voice>        <type>half</type>        <dot/>        <stem>up</stem>      </note>      <note>        <rest/>        <duration>72</duration>        <voice>1</voice>        <type>half</type>        <dot/>      </note>    </measure>    <!--=======================================================-->    <measure number="5">      <print new-system="yes"/>      <note>        <pitch>          <step>G</step>          <octave>4</octave>        </pitch>        <duration>48</duration>        <voice>1</voice>        <type>half</type>        <stem>up</stem>        <lyric number="1">          <syllabic>single</syllabic>          <text>1.4.7.</text>          <elision/>          <syllabic>single</syllabic>          <text>Tout</text>        </lyric>        <lyric number="2">          <syllabic>single</syllabic>          <text>3.</text>          <elision/>          <syllabic>begin</syllabic>          <text>Re</text>        </lyric>        <lyric number="3">          <syllabic>single</syllabic>          <text>5.</text>          <elision/>          <syllabic>single</syllabic>          <text>Trois</text>        </lyric>      </note>      <note>        <pitch>          <step>A</step>          <octave>4</octave>        </pitch>        <duration>48</duration>        <voice>1</voice>        <type>half</type>        <stem>up</stem>      </note>      <note>        <pitch>          <step>F</step>          <octave>4</octave>        </pitch>        <duration>24</duration>        <voice>1</voice>        <type>quarter</type>        <stem>up</stem>      </note>      <note>        <pitch>          <step>C</step>          <octave>5</octave>        </pitch>        <duration>24</duration>        <voice>1</voice>        <type>quarter</type>        <stem>down</stem>      </note>    </measure>    <!--=======================================================-->    <measure number="6">      <note>        <pitch>          <step>C</step>          <octave>5</octave>        </pitch>        <duration>36</duration>        <voice>1</voice>        <type>quarter</type>        <dot/>        <stem>down</stem>        <lyric number="1">          <syllabic>single</syllabic>          <text>par</text>        </lyric>        <lyric number="2">          <syllabic>middle</syllabic>          <text>gar</text>        </lyric>        <lyric number="3">          <syllabic>single</syllabic>          <text>temps</text>        </lyric>      </note>      <note>        <pitch>          <step>B</step>          <octave>4</octave>        </pitch>        <duration>24</duration>        <voice>1</voice>        <type>quarter</type>        <stem>down</stem>      </note>      <note>        <pitch>          <step>A</step>          <octave>4</octave>        </pitch>        <duration>12</duration>        <voice>1</voice>        <type>eighth</type>        <stem>up</stem>      </note>      <note>        <pitch>          <step>G</step>          <octave>4</octave>        </pitch>        <duration>24</duration>        <voice>1</voice>        <type>quarter</type>        <stem>up</stem>        <lyric number="1">          <syllabic>begin</syllabic>          <text>com</text>        </lyric>        <lyric number="2">          <syllabic>end</syllabic>          <text>de</text>        </lyric>        <lyric number="3">          <syllabic>begin</syllabic>          <text>en</text>        </lyric>      </note>      <note>        <pitch>          <step>E</step>          <octave>4</octave>        </pitch>        <duration>24</duration>        <voice>1</voice>        <type>quarter</type>        <stem>up</stem>      </note>      <note>        <pitch>          <step>D</step>          <octave>4</octave>        </pitch>        <duration>24</duration>        <voice>1</voice>        <type>quarter</type>        <stem>up</stem>      </note>    </measure>    <!--=======================================================-->    <measure number="7">      <note>        <pitch>          <step>D</step>          <octave>4</octave>        </pitch>        <duration>48</duration>        <voice>1</voice>        <type>half</type>        <stem>up</stem>        <lyric number="1">          <syllabic>end</syllabic>          <text>pas</text>        </lyric>        <lyric number="2">          <syllabic>single</syllabic>          <text>com</text>        </lyric>        <lyric number="3">          <syllabic>end</syllabic>          <text>tiers</text>        </lyric>      </note>      <note>        <rest/>        <duration>24</duration>        <voice>1</voice>        <type>quarter</type>      </note>      <note relative-x="10">        <pitch>          <step>C</step>          <octave>4</octave>        </pitch>        <duration>48</duration>        <voice>1</voice>        <type>half</type>        <stem>up</stem>        <lyric number="1">          <syllabic>single</syllabic>          <text>suy</text>        </lyric>        <lyric number="2">          <syllabic>single</syllabic>          <text>suy</text>        </lyric>        <lyric number="3">          <syllabic>single</syllabic>          <text>par</text>        </lyric>      </note>      <note>        <pitch>          <step>E</step>          <octave>4</octave>        </pitch>        <duration>12</duration>        <voice>1</voice>        <type>eighth</type>        <stem>up</stem>        <beam number="1">begin</beam>      </note>      <note>        <pitch>          <step>F</step>          <octave>4</octave>        </pitch>        <duration>12</duration>        <voice>1</voice>        <type>eighth</type>        <stem>up</stem>        <beam number="1">end</beam>      </note>    </measure>    <!--=======================================================-->    <measure number="8">      <note>        <pitch>          <step>G</step>          <octave>4</octave>        </pitch>        <duration>12</duration>        <voice>1</voice>        <type>eighth</type>        <stem>up</stem>        <lyric number="1">          <syllabic>begin</syllabic>          <text>com</text>        </lyric>        <lyric number="2">          <syllabic>begin</syllabic>          <text>dis</text>        </lyric>        <lyric number="3">          <syllabic>single</syllabic>          <text>toys</text>        </lyric>      </note>      <note>        <pitch>          <step>B</step>          <octave>4</octave>        </pitch>        <duration>24</duration>        <voice>1</voice>        <type>quarter</type>        <stem>down</stem>      </note>      <note>        <pitch>          <step>C</step>          <octave>5</octave>        </pitch>        <duration>12</duration>        <voice>1</voice>        <type>eighth</type>        <stem>down</stem>      </note>      <note>        <pitch>          <step>D</step>          <octave>5</octave>        </pitch>        <duration>24</duration>        <voice>1</voice>        <type>quarter</type>        <stem>down</stem>      </note>      <note>        <pitch>          <step>A</step>          <octave>4</octave>        </pitch>        <duration>8</duration>        <voice>1</voice>        <type>eighth</type>        <time-modification>          <actual-notes>3</actual-notes>          <normal-notes>2</normal-notes>          <normal-type>quarter</normal-type>          <normal-dot/>        </time-modification>        <stem>up</stem>        <beam number="1">begin</beam>        <notations>          <tuplet bracket="no" number="1" show-number="none" type="start"/>        </notations>        <lyric number="1">          <syllabic>middle</syllabic>          <text>po</text>        </lyric>        <lyric number="2">          <syllabic>middle</syllabic>          <text>po</text>        </lyric>        <lyric number="3">          <syllabic>begin</syllabic>          <text>po</text>        </lyric>      </note>      <note>        <pitch>          <step>B</step>          <octave>4</octave>        </pitch>        <duration>8</duration>        <voice>1</voice>        <type>eighth</type>        <time-modification>          <actual-notes>3</actual-notes>          <normal-notes>2</normal-notes>          <normal-type>quarter</normal-type>          <normal-dot/>        </time-modification>        <stem>up</stem>        <beam number="1">end</beam>      </note>      <note>        <pitch>          <step>A</step>          <octave>4</octave>        </pitch>        <duration>16</duration>        <voice>1</voice>        <type>quarter</type>        <time-modification>          <actual-notes>3</actual-notes>          <normal-notes>2</normal-notes>          <normal-type>quarter</normal-type>          <normal-dot/>        </time-modification>        <stem>up</stem>      </note>      <note>        <pitch>          <step>D</step>          <octave>5</octave>        </pitch>        <duration>8</duration>        <voice>1</voice>        <type>eighth</type>        <time-modification>          <actual-notes>3</actual-notes>          <normal-notes>2</normal-notes>          <normal-type>quarter</normal-type>          <normal-dot/>        </time-modification>        <stem>down</stem>      </note>      <note>        <pitch>          <step>B</step>          <octave>4</octave>        </pitch>        <duration>16</duration>        <voice>1</voice>        <type>quarter</type>        <time-modification>          <actual-notes>3</actual-notes>          <normal-notes>2</normal-notes>          <normal-type>quarter</normal-type>          <normal-dot/>        </time-modification>        <stem>down</stem>      </note>      <note>        <pitch>          <step>C</step>          <octave>5</octave>        </pitch>        <duration>8</duration>        <voice>1</voice>        <type>eighth</type>        <time-modification>          <actual-notes>3</actual-notes>          <normal-notes>2</normal-notes>          <normal-type>quarter</normal-type>          <normal-dot/>        </time-modification>        <stem>down</stem>        <beam number="1">begin</beam>      </note>      <note>        <pitch>          <step>A</step>          <octave>4</octave>        </pitch>        <duration>8</duration>        <voice>1</voice>        <type>eighth</type>        <time-modification>          <actual-notes>3</actual-notes>          <normal-notes>2</normal-notes>          <normal-type>quarter</normal-type>          <normal-dot/>        </time-modification>        <stem>down</stem>        <beam number="1">end</beam>        <notations>          <tuplet number="1" type="stop"/>        </notations>      </note>    </measure>    <!--=======================================================-->    <measure number="9">      <print new-system="yes"/>      <direction placement="below">        <direction-type>          <words default-y="-30" font-family="FiguraeMensuris" font-size="27" relative-x="-22">Ç</words>        </direction-type>      </direction>      <note>        <pitch>          <step>C</step>          <octave>5</octave>        </pitch>        <duration>36</duration>        <voice>1</voice>        <type>quarter</type>        <dot/>        <stem>down</stem>        <lyric number="1">          <syllabic>end</syllabic>          <text>ses</text>        </lyric>        <lyric number="2">          <syllabic>end</syllabic>          <text>ses,</text>        </lyric>        <lyric number="3">          <syllabic>end</syllabic>          <text>ses</text>        </lyric>      </note>      <note>        <rest/>        <duration>12</duration>        <voice>1</voice>        <type>eighth</type>      </note>      <note>        <rest/>        <duration>12</duration>        <voice>1</voice>        <type>eighth</type>      </note>      <note>        <pitch>          <step>G</step>          <octave>4</octave>        </pitch>        <duration>12</duration>        <voice>1</voice>        <type>eighth</type>        <stem>up</stem>      </note>    </measure>    <!--=======================================================-->    <measure number="10">      <note>        <pitch>          <step>F</step>          <octave>4</octave>        </pitch>        <duration>12</duration>        <voice>1</voice>        <type>eighth</type>        <stem>up</stem>        <beam number="1">begin</beam>      </note>      <note>        <pitch>          <step>E</step>          <octave>4</octave>        </pitch>        <duration>12</duration>        <voice>1</voice>        <type>eighth</type>        <stem>up</stem>        <beam number="1">continue</beam>      </note>      <note>        <pitch>          <step>D</step>          <octave>4</octave>        </pitch>        <duration>12</duration>        <voice>1</voice>        <type>eighth</type>        <stem>up</stem>        <beam number="1">end</beam>      </note>      <note>        <pitch>          <step>A</step>          <octave>4</octave>        </pitch>        <duration>12</duration>        <voice>1</voice>        <type>eighth</type>        <stem>up</stem>      </note>      <note>        <rest/>        <duration>12</duration>        <voice>1</voice>        <type>eighth</type>      </note>      <note>        <pitch>          <step>C</step>          <octave>5</octave>        </pitch>        <duration>12</duration>        <voice>1</voice>        <type>eighth</type>        <stem>down</stem>      </note>    </measure>    <!--=======================================================-->    <measure number="11">      <note>        <pitch>          <step>C</step>          <octave>5</octave>        </pitch>        <duration>12</duration>        <voice>1</voice>        <type>eighth</type>        <stem>down</stem>      </note>      <note>        <pitch>          <step>B</step>          <octave>4</octave>        </pitch>        <duration>24</duration>        <voice>1</voice>        <type>quarter</type>        <stem>down</stem>      </note>      <note>        <pitch>          <step>A</step>          <octave>4</octave>        </pitch>        <duration>12</duration>        <voice>1</voice>        <type>eighth</type>        <stem>up</stem>      </note>      <note>        <rest/>        <duration>12</duration>        <voice>1</voice>        <type>eighth</type>      </note>      <note>        <pitch>          <step>D</step>          <octave>5</octave>        </pitch>        <duration>12</duration>        <voice>1</voice>        <type>eighth</type>        <stem>down</stem>        <lyric number="1">          <syllabic>single</syllabic>          <text>2.8.</text>          <elision/>          <syllabic>single</syllabic>          <text>En</text>        </lyric>        <lyric number="2">          <syllabic>single</syllabic>          <text>6.</text>          <elision/>          <syllabic>begin</syllabic>          <text>Cha</text>        </lyric>      </note>    </measure>    <!--=======================================================-->    <measure number="12">      <note>        <pitch>          <step>E</step>          <octave>5</octave>        </pitch>        <duration>12</duration>        <voice>1</voice>        <type>eighth</type>        <stem>down</stem>        <beam number="1">begin</beam>        <lyric number="1">          <syllabic>begin</syllabic>          <text>ces</text>        </lyric>        <lyric number="2">          <syllabic>end</syllabic>          <text>cer</text>        </lyric>      </note>      <note>        <pitch>          <step>D</step>          <octave>5</octave>        </pitch>        <duration>12</duration>        <voice>1</voice>        <type>eighth</type>        <stem>down</stem>        <beam number="1">continue</beam>      </note>      <note>        <pitch>          <step>C</step>          <octave>5</octave>        </pitch>        <duration>12</duration>        <voice>1</voice>        <type>eighth</type>        <stem>down</stem>        <beam number="1">end</beam>        <lyric number="1">          <syllabic>end</syllabic>          <text>te</text>        </lyric>        <lyric number="2">          <syllabic>single</syllabic>          <text>me</text>        </lyric>      </note>      <note>        <pitch>          <step>A</step>          <octave>4</octave>        </pitch>        <duration>24</duration>        <voice>1</voice>        <type>quarter</type>        <stem>up</stem>        <lyric number="1">          <syllabic>begin</syllabic>          <text>ro</text>        </lyric>        <lyric number="2">          <syllabic>single</syllabic>          <text>pues</text>        </lyric>      </note>      <note>        <pitch>          <step>G</step>          <octave>4</octave>        </pitch>        <duration>12</duration>        <voice>1</voice>        <type>eighth</type>        <stem>up</stem>        <lyric number="1">          <syllabic>end</syllabic>          <text>de</text>        </lyric>        <lyric number="2">          <syllabic>begin</syllabic>          <text>io</text>        </lyric>      </note>    </measure>    <!--=======================================================-->    <measure number="13">      <print new-system="yes"/>      <note>        <pitch>          <step>A</step>          <octave>4</octave>        </pitch>        <duration>12</duration>        <voice>1</voice>        <type>eighth</type>        <stem>up</stem>        <lyric number="1">          <syllabic>begin</syllabic>          <text>pro</text>        </lyric>        <lyric number="2">          <syllabic>middle</syllabic>          <text>yeu</text>        </lyric>      </note>      <note>        <pitch>          <step>F</step>          <octave>4</octave>        </pitch>        <duration>24</duration>        <voice>1</voice>        <type>quarter</type>        <stem>up</stem>        <lyric number="1">          <syllabic>middle</syllabic>          <text>pre</text>        </lyric>        <lyric number="2">          <syllabic>middle</syllabic>          <text>se</text>        </lyric>      </note>      <note>        <pitch>          <step>E</step>          <octave>4</octave>        </pitch>        <duration>27</duration>        <voice>1</voice>        <type>quarter</type>        <dot/>        <time-modification>          <actual-notes>4</actual-notes>          <normal-notes>3</normal-notes>          <normal-type>eighth</normal-type>        </time-modification>        <stem>up</stem>        <notations>          <tuplet bracket="no" number="1" show-number="none" type="start"/>        </notations>        <lyric number="1">          <syllabic>end</syllabic>          <text>ment</text>        </lyric>        <lyric number="2">          <syllabic>end</syllabic>          <text>ment</text>        </lyric>      </note>      <note>        <pitch>          <step>G</step>          <octave>4</octave>        </pitch>        <duration>9</duration>        <voice>1</voice>        <type>eighth</type>        <time-modification>          <actual-notes>4</actual-notes>          <normal-notes>3</normal-notes>          <normal-type>eighth</normal-type>        </time-modification>        <stem>up</stem>        <notations>          <tuplet number="1" type="stop"/>        </notations>        <lyric number="1">          <syllabic>single</syllabic>          <text>pour</text>        </lyric>        <lyric number="2">          <syllabic>single</syllabic>          <text>s’en</text>        </lyric>      </note>    </measure>    <!--=======================================================-->    <measure number="14">      <note>        <pitch>          <step>F</step>          <octave>4</octave>        </pitch>        <duration>18</duration>        <voice>1</voice>        <type>quarter</type>        <time-modification>          <actual-notes>4</actual-notes>          <normal-notes>3</normal-notes>          <normal-type>eighth</normal-type>        </time-modification>        <stem>up</stem>        <notations>          <tuplet bracket="no" number="1" show-number="none" type="start">            <tuplet-actual>              <tuplet-number>2</tuplet-number>              <tuplet-type>quarter</tuplet-type>            </tuplet-actual>            <tuplet-normal>              <tuplet-number>3</tuplet-number>              <tuplet-type>eighth</tuplet-type>            </tuplet-normal>          </tuplet>        </notations>        <lyric number="1">          <syllabic>single</syllabic>          <text>moy</text>        </lyric>        <lyric number="2">          <syllabic>begin</syllabic>          <text>chan</text>        </lyric>      </note>      <note>        <pitch>          <step>E</step>          <octave>4</octave>        </pitch>        <duration>18</duration>        <voice>1</voice>        <type>quarter</type>        <time-modification>          <actual-notes>4</actual-notes>          <normal-notes>3</normal-notes>          <normal-type>eighth</normal-type>        </time-modification>        <stem>up</stem>        <notations>          <tuplet number="1" type="stop"/>        </notations>        <lyric number="1">          <syllabic>begin</syllabic>          <text>chan</text>        </lyric>        <lyric number="2">          <syllabic>end</syllabic>          <text>tant</text>        </lyric>      </note>      <note>        <pitch>          <step>D</step>          <octave>4</octave>        </pitch>        <duration>12</duration>        <voice>1</voice>        <type>eighth</type>        <stem>up</stem>        <lyric number="1">          <syllabic>end</syllabic>          <text>ter</text>        </lyric>        <lyric number="2">          <syllabic>single</syllabic>          <text>as</text>        </lyric>      </note>      <note>        <rest/>        <duration>12</duration>        <voice>1</voice>        <type>eighth</type>      </note>      <note>        <pitch>          <step>D</step>          <octave>5</octave>        </pitch>        <duration>12</duration>        <voice>1</voice>        <type>eighth</type>        <stem>down</stem>        <lyric number="1">          <syllabic>single</syllabic>          <text>plus</text>        </lyric>        <lyric number="2">          <syllabic>single</syllabic>          <text>vray</text>        </lyric>      </note>    </measure>    <!--=======================================================-->    <measure number="15">      <note>        <pitch>          <step>E</step>          <octave>5</octave>        </pitch>        <duration>24</duration>        <voice>1</voice>        <type>quarter</type>        <stem>down</stem>        <lyric number="1">          <syllabic>begin</syllabic>          <text>seu</text>        </lyric>        <lyric number="2">          <syllabic>begin</syllabic>          <text>sen</text>        </lyric>      </note>      <note>        <pitch>          <step>D</step>          <octave>5</octave>        </pitch>        <duration>12</duration>        <voice>1</voice>        <type>eighth</type>        <stem>down</stem>      </note>      <note>        <pitch>          <step>D</step>          <octave>5</octave>        </pitch>        <duration>24</duration>        <voice>1</voice>        <type>quarter</type>        <stem>down</stem>        <lyric number="1">          <syllabic>middle</syllabic>          <text>re</text>        </lyric>        <lyric number="2">          <syllabic>middle</syllabic>          <text>te</text>        </lyric>      </note>      <note>        <pitch>          <step>C</step>          <octave>5</octave>        </pitch>        <duration>12</duration>        <voice>1</voice>        <type>eighth</type>        <stem>down</stem>      </note>    </measure>    <!--=======================================================-->    <measure number="16">      <note>        <pitch>          <step>D</step>          <octave>5</octave>        </pitch>        <duration>36</duration>        <voice>1</voice>        <type>quarter</type>        <dot/>        <stem>down</stem>        <lyric number="1">          <syllabic>end</syllabic>          <text>ment</text>        </lyric>        <lyric number="2">          <syllabic>end</syllabic>          <text>ment.</text>        </lyric>      </note>    </measure>    <!--=======================================================-->    <measure number="17">      <print new-page="yes"/>      <note>        <pitch>          <step>C</step>          <octave>5</octave>        </pitch>        <duration>24</duration>        <voice>1</voice>        <type>quarter</type>        <stem>down</stem>      </note>      <note>        <pitch>          <step>B</step>          <octave>4</octave>        </pitch>        <duration>24</duration>        <voice>1</voice>        <type>quarter</type>        <stem>down</stem>      </note>      <note>        <pitch>          <step>A</step>          <octave>4</octave>        </pitch>        <duration>24</duration>        <voice>1</voice>        <type>quarter</type>        <stem>up</stem>      </note>    </measure>    <!--=======================================================-->    <measure number="18">      <note>        <pitch>          <step>G</step>          <octave>4</octave>        </pitch>        <duration>36</duration>        <voice>1</voice>        <type>quarter</type>        <dot/>        <stem>up</stem>      </note>      <note>        <rest/>        <duration>36</duration>        <voice>1</voice>        <type>quarter</type>        <dot/>      </note>      <note>        <rest/>        <duration>12</duration>        <voice>1</voice>        <type>eighth</type>      </note>      <note>        <rest/>        <duration>12</duration>        <voice>1</voice>        <type>eighth</type>      </note>      <note>        <pitch>          <step>C</step>          <octave>5</octave>        </pitch>        <duration>12</duration>        <voice>1</voice>        <type>eighth</type>        <stem>down</stem>      </note>      <barline location="right">        <bar-style>light-heavy</bar-style>        <repeat direction="backward"/>      </barline>    </measure>    <!--=======================================================-->    <measure number="19">      <note>        <pitch>          <step>C</step>          <octave>5</octave>        </pitch>        <duration>72</duration>        <voice>1</voice>        <type>half</type>        <dot/>        <stem>down</stem>        <notations>          <fermata type="upright"/>        </notations>      </note>      <barline location="right">        <bar-style>light-heavy</bar-style>      </barline>    </measure>  </part>  <!--=========================================================-->  <part id="P3">    <measure number="1">      <attributes>        <divisions>1</divisions>        <key>          <fifths>-1</fifths>          <mode>major</mode>        </key>        <clef>          <sign>C</sign>          <line>3</line>        </clef>      </attributes>      <sound tempo="96"/>      <direction placement="below">        <direction-type>          <words font-family="Times" font-size="7.5">Tenor cuius finis est 2</words>          <words font-family="Times" font-size="7.5">a</words>          <words font-family="Times" font-size="7.5"> nota</words>        </direction-type>      </direction>      <note relative-x="24">        <rest/>        <duration>3</duration>        <voice>1</voice>        <type>half</type>        <dot/>        <notations>          <articulations>            <other-articulation placement="below" relative-x="-15">[</other-articulation>            <other-articulation placement="below" relative-x="23">]</other-articulation>          </articulations>        </notations>      </note>    </measure>    <!--=======================================================-->    <measure number="2">      <direction placement="below">        <direction-type>          <words default-y="-26" font-family="FiguraeMensuris" font-size="36" relative-x="-32">@</words>        </direction-type>      </direction>      <note>        <pitch>          <step>C</step>          <octave>4</octave>        </pitch>        <duration>6</duration>        <voice>1</voice>        <type>whole</type>        <dot/>        <notations>          <articulations>            <staccato placement="below" relative-x="20"/>          </articulations>        </notations>      </note>    </measure>    <!--=======================================================-->    <measure number="3">      <barline location="left">        <bar-style>heavy-light</bar-style>        <repeat direction="forward"/>      </barline>      <note>        <pitch>          <step>F</step>          <octave>3</octave>        </pitch>        <duration>3</duration>        <voice>1</voice>        <type>half</type>        <dot/>        <stem>up</stem>      </note>      <note>        <pitch>          <step>C</step>          <octave>4</octave>        </pitch>        <duration>6</duration>        <voice>1</voice>        <type>whole</type>        <dot/>        <notations>          <slide line-type="solid" number="1" type="start"/>        </notations>      </note>    </measure>    <!--=======================================================-->    <measure number="4">      <note>        <pitch>          <step>F</step>          <octave>3</octave>        </pitch>        <duration>6</duration>        <voice>1</voice>        <type>whole</type>        <dot/>        <notations>          <slide line-type="solid" number="1" type="stop"/>        </notations>      </note>    </measure>    <!--=======================================================-->    <measure number="5">      <print new-system="yes"/>      <note>        <pitch>          <step>C</step>          <octave>4</octave>        </pitch>        <duration>3</duration>        <voice>1</voice>        <type>half</type>        <dot/>        <stem>down</stem>      </note>      <note>        <pitch>          <step>F</step>          <octave>4</octave>        </pitch>        <duration>2</duration>        <voice>1</voice>        <type>half</type>        <stem>down</stem>      </note>      <note>        <pitch>          <step>E</step>          <octave>4</octave>        </pitch>        <duration>1</duration>        <voice>1</voice>        <type>quarter</type>        <stem>down</stem>      </note>    </measure>    <!--=======================================================-->    <measure number="6">      <note>        <pitch>          <step>G</step>          <octave>4</octave>        </pitch>        <duration>2</duration>        <voice>1</voice>        <type>half</type>        <stem>down</stem>      </note>      <note>        <rest/>        <duration>1</duration>        <voice>1</voice>        <type>quarter</type>      </note>      <note>        <pitch>          <step>G</step>          <octave>3</octave>        </pitch>        <duration>3</duration>        <voice>1</voice>        <type>half</type>        <dot/>        <stem>up</stem>      </note>    </measure>    <!--=======================================================-->    <measure number="7">      <note>        <pitch>          <step>F</step>          <octave>4</octave>        </pitch>        <duration>1</duration>        <voice>1</voice>        <type>quarter</type>        <stem>down</stem>        <notations>          <slide line-type="solid" number="1" type="start"/>        </notations>      </note>      <note>        <pitch>          <step>D</step>          <octave>4</octave>        </pitch>        <duration>1</duration>        <voice>1</voice>        <type>quarter</type>        <stem>down</stem>        <notations>          <slide line-type="solid" number="1" type="stop"/>        </notations>      </note>      <note>        <pitch>          <step>C</step>          <octave>4</octave>        </pitch>        <duration>1</duration>        <voice>1</voice>        <type>quarter</type>        <stem>down</stem>      </note>      <note relative-x="8">        <pitch>          <step>F</step>          <octave>3</octave>        </pitch>        <duration>2</duration>        <voice>1</voice>        <type>half</type>        <stem>up</stem>      </note>      <note>        <pitch>          <step>C</step>          <octave>4</octave>        </pitch>        <duration>1</duration>        <voice>1</voice>        <type>quarter</type>        <stem>down</stem>      </note>    </measure>    <!--=======================================================-->    <measure number="8">      <note>        <pitch>          <step>G</step>          <octave>3</octave>        </pitch>        <duration>3</duration>        <voice>1</voice>        <type>half</type>        <dot/>        <stem>up</stem>      </note>      <note>        <pitch>          <step>D</step>          <octave>4</octave>        </pitch>        <duration>4</duration>        <voice>1</voice>        <type>whole</type>      </note>    </measure>    <!--=======================================================-->    <measure number="9">      <print new-system="yes"/>      <note print-object="no">        <cue/>        <pitch>          <step>D</step>          <octave>4</octave>        </pitch>        <duration>1</duration>        <voice>1</voice>        <type size="full">quarter</type>        <stem>down</stem>      </note>      <note>        <pitch>          <step>C</step>          <octave>4</octave>        </pitch>        <duration>2</duration>        <voice>1</voice>        <type>half</type>        <stem>down</stem>      </note>      <note>        <pitch>          <step>E</step>          <octave>4</octave>        </pitch>        <duration>2</duration>        <voice>1</voice>        <type>half</type>        <stem>down</stem>      </note>      <note>        <pitch>          <step>G</step>          <octave>4</octave>        </pitch>        <duration>1</duration>        <voice>1</voice>        <type>quarter</type>        <stem>down</stem>      </note>    </measure>    <!--=======================================================-->    <measure number="10">      <note>        <pitch>          <step>D</step>          <octave>4</octave>        </pitch>        <duration>3</duration>        <voice>1</voice>        <type>half</type>        <dot/>        <stem>down</stem>        <notations>          <slide line-type="solid" number="1" type="start"/>        </notations>      </note>      <note>        <pitch>          <step>A</step>          <octave>3</octave>        </pitch>        <duration>3</duration>        <voice>1</voice>        <type>half</type>        <dot/>        <stem>up</stem>        <notations>          <slide line-type="solid" number="1" type="stop"/>        </notations>      </note>    </measure>    <!--=======================================================-->    <measure number="11">      <note>        <pitch>          <step>D</step>          <octave>4</octave>        </pitch>        <duration>3</duration>        <voice>1</voice>        <type>half</type>        <dot/>        <stem>down</stem>        <notations>          <slide line-type="solid" number="1" type="start"/>        </notations>      </note>      <note>        <pitch>          <step>A</step>          <octave>3</octave>        </pitch>        <duration>3</duration>        <voice>1</voice>        <type>half</type>        <dot/>        <stem>up</stem>        <notations>          <slide line-type="solid" number="1" type="stop"/>        </notations>      </note>    </measure>    <!--=======================================================-->    <measure number="12">      <note>        <pitch>          <step>C</step>          <octave>4</octave>        </pitch>        <duration>3</duration>        <voice>1</voice>        <type>half</type>        <dot/>        <stem>down</stem>      </note>      <note>        <rest/>        <duration>3</duration>        <voice>1</voice>        <type>half</type>        <dot/>      </note>    </measure>    <!--=======================================================-->    <measure number="13">      <print new-system="yes"/>      <note>        <pitch>          <step>F</step>          <octave>4</octave>        </pitch>        <duration>3</duration>        <voice>1</voice>        <type>half</type>        <dot/>        <stem>down</stem>      </note>      <note>        <pitch>          <step>A</step>          <octave>4</octave>        </pitch>        <duration>3</duration>        <voice>1</voice>        <type>half</type>        <dot/>        <stem>down</stem>      </note>      <note>        <rest/>        <duration>3</duration>        <voice>1</voice>        <type>half</type>        <dot/>      </note>      <note>        <pitch>          <step>G</step>          <octave>4</octave>        </pitch>        <duration>3</duration>        <voice>1</voice>        <type>half</type>        <dot/>        <stem>down</stem>        <notations>          <slide line-type="solid" number="1" type="start"/>        </notations>      </note>    </measure>    <!--=======================================================-->    <measure number="14">      <note>        <pitch>          <step>D</step>          <octave>4</octave>        </pitch>        <duration>3</duration>        <voice>1</voice>        <type>half</type>        <dot/>        <stem>down</stem>        <notations>          <slide line-type="solid" number="1" type="stop"/>        </notations>      </note>      <note>        <rest/>        <duration>3</duration>        <voice>1</voice>        <type>half</type>        <dot/>      </note>      <note>        <pitch>          <step>G</step>          <octave>3</octave>        </pitch>        <duration>6</duration>        <voice>1</voice>        <type>whole</type>        <dot/>      </note>    </measure>    <!--=======================================================-->    <measure number="15">      <note>        <rest/>        <duration>6</duration>        <voice>1</voice>        <type>whole</type>        <dot/>      </note>      <note>        <pitch>          <step>D</step>          <octave>4</octave>        </pitch>        <duration>6</duration>        <voice>1</voice>        <type>whole</type>        <dot/>        <notations>          <slide line-type="solid" number="1" type="start"/>        </notations>      </note>    </measure>    <!--=======================================================-->    <measure number="16">      <note>        <pitch>          <step>G</step>          <octave>3</octave>        </pitch>        <duration>6</duration>        <voice>1</voice>        <type>whole</type>        <dot/>        <notations>          <slide line-type="solid" number="1" type="stop"/>        </notations>      </note>    </measure>    <!--=======================================================-->    <measure number="17">      <print new-page="yes"/>      <direction placement="below">        <direction-type>          <words default-y="-29" font-family="FiguraeMensuris" font-size="27" relative-x="-27">Ç</words>        </direction-type>      </direction>      <note>        <pitch>          <step>C</step>          <octave>4</octave>        </pitch>        <duration>3</duration>        <voice>1</voice>        <type>half</type>        <dot/>        <stem>down</stem>      </note>    </measure>    <!--=======================================================-->    <measure number="18">      <direction placement="below">        <direction-type>          <words default-y="-24" font-family="FiguraeMensuris" font-size="36" relative-x="-36">@</words>        </direction-type>      </direction>      <direction placement="above">        <direction-type>          <words font-family="Symbol" font-size="7.5">?</words>        </direction-type>      </direction>      <direction>        <direction-type>          <words default-x="145" default-y="-119" font-family="Times" font-size="9">Seigneurs ie vous pri chierement&#xd;Pries pour celi qui m’a fait&#xd;Je dis a tous communement&#xd;Seigneurs ie vous pri chierement&#xd;Que dieu a son definement&#xd;le doint pardon de son meffait.&#xd;Seigneurs ie vous pri chierement&#xd;Pries pour celi qui m’a fait.&#xd;&#xd;Par bonne amour et par dilection&#xd;J’ay fait ce rondel pour enoffre.&#xd;Icy puet prendre consolacion&#xd;Par bonne amour et par dilection.&#xd;Tout cuer et corps et mon affection&#xd;A son plaisir sont et li offre&#xd;Par bonne amour et par dilection&#xd;J’ay fait ce rondel pour enoffre&#xd;&#xd;Maistre Baude Cordier se nomme&#xd;Cilz qui composa ceste rode&#xd;Je suis bien scavoir a tout homme&#xd;Maistre Baude Cordier se nomme&#xd;De Reims dont est et iusqu’a Romme&#xd;Sa musique appert et a rode&#xd;Maistre Baude Cordier se nomme&#xd;Cilz qui composa  ceste rode.</words>          <words font-family="Times" font-size="7.5"/>        </direction-type>      </direction>      <note>        <pitch>          <step>C</step>          <octave>4</octave>        </pitch>        <duration>6</duration>        <voice>1</voice>        <type>whole</type>        <dot/>        <notations>          <articulations>            <staccato placement="below" relative-x="20"/>          </articulations>        </notations>      </note>      <barline location="right">        <bar-style>light-heavy</bar-style>        <repeat direction="backward"/>      </barline>    </measure>    <!--=======================================================-->    <measure number="19">      <note>        <pitch>          <step>F</step>          <octave>3</octave>        </pitch>        <duration>3</duration>        <voice>1</voice>        <type>half</type>        <dot/>        <stem>up</stem>        <notations>          <fermata type="upright"/>        </notations>      </note>      <barline location="right">        <bar-style>light-heavy</bar-style>      </barline>    </measure>  </part>  <!--=========================================================--></score-partwise>