<?xml version="1.0" encoding="UTF-8"?><!DOCTYPE score-partwise PUBLIC "-//Recordare//DTD MusicXML 1.0 Partwise//EN"                                "http://www.musicxml.org/dtds/partwise.dtd"><score-partwise>  <movement-title>Se vos me voles</movement-title>  <identification>    <creator type="composer">Galiot?</creator>    <rights>©2000-2006 Jason Stoessel. All rights reserved.</rights>    <encoding>      <software>Finale for Macintosh</software>      <software>Dolet Light for Finale 2006</software>      <encoding-date>2006-11-07</encoding-date>    </encoding>  </identification>  <part-list>    <part-group number="1" type="start">      <group-symbol>bracket</group-symbol>      <group-barline>Mensurstrich</group-barline>    </part-group>    <score-part id="P1">      <part-name>S</part-name>      <score-instrument id="P1-I3">        <instrument-name>Clarinet</instrument-name>      </score-instrument>      <midi-instrument id="P1-I3">        <midi-channel>3</midi-channel>        <midi-program>72</midi-program>      </midi-instrument>    </score-part>    <score-part id="P2">      <part-name>Ct</part-name>      <score-instrument id="P2-I5">        <instrument-name>Jazz Guitar</instrument-name>      </score-instrument>      <midi-instrument id="P2-I5">        <midi-channel>6</midi-channel>        <midi-program>27</midi-program>      </midi-instrument>    </score-part>    <score-part id="P3">      <part-name>T</part-name>      <score-instrument id="P3-I16">        <instrument-name>Violin</instrument-name>      </score-instrument>      <midi-instrument id="P3-I16">        <midi-channel>15</midi-channel>        <midi-program>41</midi-program>      </midi-instrument>    </score-part>    <part-group number="1" type="stop"/>  </part-list>  <!--=========================================================-->  <part id="P1">    <measure number="1">      <attributes>        <divisions>48</divisions>        <key>          <fifths>0</fifths>          <mode>major</mode>        </key>        <clef>          <sign>C</sign>          <line>3</line>        </clef>      </attributes>      <sound tempo="96"/>      <note>        <pitch>          <step>C</step>          <octave>4</octave>        </pitch>        <duration>96</duration>        <voice>1</voice>        <type>half</type>        <stem>down</stem>        <lyric number="1">          <syllabic>single</syllabic>          <text>1.4.7.</text>          <elision/>          <syllabic>single</syllabic>          <text>Se</text>        </lyric>      </note>      <note>        <pitch>          <step>D</step>          <octave>4</octave>        </pitch>        <duration>72</duration>        <voice>1</voice>        <type>quarter</type>        <dot/>        <stem>down</stem>      </note>      <note>        <pitch>          <step>E</step>          <octave>4</octave>        </pitch>        <duration>24</duration>        <voice>1</voice>        <type>eighth</type>        <stem>down</stem>        <beam number="1">begin</beam>      </note>      <note>        <pitch>          <step>F</step>          <octave>4</octave>        </pitch>        <duration>24</duration>        <voice>1</voice>        <type>eighth</type>        <stem>down</stem>        <beam number="1">end</beam>      </note>    </measure>    <!--=======================================================-->    <measure number="2">      <note>        <pitch>          <step>D</step>          <octave>4</octave>        </pitch>        <duration>24</duration>        <voice>1</voice>        <type>eighth</type>        <stem>down</stem>        <beam number="1">begin</beam>        <lyric number="1">          <syllabic>single</syllabic>          <text>vos</text>        </lyric>      </note>      <note>        <pitch>          <step>E</step>          <octave>4</octave>        </pitch>        <duration>24</duration>        <voice>1</voice>        <type>eighth</type>        <stem>down</stem>        <beam number="1">end</beam>      </note>      <note>        <pitch>          <step>F</step>          <alter>1</alter>          <octave>4</octave>        </pitch>        <duration>48</duration>        <voice>1</voice>        <type>quarter</type>        <stem>down</stem>      </note>      <note>        <pitch>          <step>G</step>          <octave>4</octave>        </pitch>        <duration>72</duration>        <voice>1</voice>        <type>quarter</type>        <dot/>        <stem>down</stem>      </note>      <note>        <pitch>          <step>F</step>          <alter>1</alter>          <octave>4</octave>        </pitch>        <duration>24</duration>        <voice>1</voice>        <type>eighth</type>        <stem>down</stem>        <beam number="1">begin</beam>      </note>      <note>        <pitch>          <step>G</step>          <octave>4</octave>        </pitch>        <duration>24</duration>        <voice>1</voice>        <type>eighth</type>        <stem>down</stem>        <beam number="1">end</beam>      </note>    </measure>    <!--=======================================================-->    <measure number="3">      <note>        <pitch>          <step>A</step>          <octave>4</octave>        </pitch>        <duration>48</duration>        <voice>1</voice>        <type>quarter</type>        <stem>down</stem>      </note>      <note>        <pitch>          <step>G</step>          <octave>4</octave>        </pitch>        <duration>72</duration>        <voice>1</voice>        <type>quarter</type>        <dot/>        <stem>down</stem>        <lyric number="1">          <syllabic>single</syllabic>          <text>me</text>        </lyric>      </note>      <note>        <pitch>          <step>F</step>          <octave>4</octave>        </pitch>        <duration>48</duration>        <voice>1</voice>        <type>quarter</type>        <stem>down</stem>      </note>      <note>        <pitch>          <step>E</step>          <octave>4</octave>        </pitch>        <duration>24</duration>        <voice>1</voice>        <type>eighth</type>        <stem>down</stem>        <beam number="1">begin</beam>      </note>      <note>        <pitch>          <step>D</step>          <octave>4</octave>        </pitch>        <duration>24</duration>        <voice>1</voice>        <type>eighth</type>        <stem>down</stem>        <beam number="1">end</beam>        <lyric number="1">          <syllabic>begin</syllabic>          <text>vo</text>        </lyric>      </note>    </measure>    <!--=======================================================-->    <measure number="4">      <note>        <pitch>          <step>C</step>          <octave>4</octave>        </pitch>        <duration>18</duration>        <voice>1</voice>        <type>16th</type>        <dot relative-x="-4"/>        <stem>down</stem>        <beam number="1">begin</beam>        <beam number="2">begin</beam>        <lyric number="1">          <syllabic>end</syllabic>          <text>les</text>        </lyric>      </note>      <note>        <pitch>          <step>D</step>          <octave>4</octave>        </pitch>        <duration>18</duration>        <voice>1</voice>        <type>16th</type>        <dot relative-x="-3"/>        <stem>down</stem>        <beam number="1">continue</beam>        <beam number="2">continue</beam>      </note>      <note>        <pitch>          <step>E</step>          <octave>4</octave>        </pitch>        <duration>18</duration>        <voice>1</voice>        <type>16th</type>        <dot relative-x="-3"/>        <stem>down</stem>        <beam number="1">continue</beam>        <beam number="2">continue</beam>      </note>      <note>        <pitch>          <step>F</step>          <octave>4</octave>        </pitch>        <duration>18</duration>        <voice>1</voice>        <type>16th</type>        <dot relative-x="-4"/>        <stem>down</stem>        <beam number="1">end</beam>        <beam number="2">end</beam>      </note>      <note>        <pitch>          <step>G</step>          <octave>4</octave>        </pitch>        <duration>18</duration>        <voice>1</voice>        <type>16th</type>        <dot relative-x="-3"/>        <stem>down</stem>        <beam number="1">begin</beam>        <beam number="2">begin</beam>      </note>      <note>        <pitch>          <step>F</step>          <octave>4</octave>        </pitch>        <duration>18</duration>        <voice>1</voice>        <type>16th</type>        <dot relative-x="-2"/>        <stem>down</stem>        <beam number="1">continue</beam>        <beam number="2">continue</beam>      </note>      <note>        <pitch>          <step>E</step>          <octave>4</octave>        </pitch>        <duration>18</duration>        <voice>1</voice>        <type>16th</type>        <dot relative-x="-2"/>        <stem>down</stem>        <beam number="1">continue</beam>        <beam number="2">continue</beam>      </note>      <note>        <pitch>          <step>E</step>          <octave>4</octave>        </pitch>        <duration>18</duration>        <voice>1</voice>        <type>16th</type>        <dot relative-x="-2"/>        <stem>down</stem>        <beam number="1">end</beam>        <beam number="2">end</beam>      </note>      <note>        <pitch>          <step>D</step>          <octave>4</octave>        </pitch>        <duration>18</duration>        <voice>1</voice>        <type>16th</type>        <dot relative-x="-3"/>        <stem>down</stem>        <beam number="1">begin</beam>        <beam number="2">begin</beam>      </note>      <note>        <pitch>          <step>E</step>          <octave>4</octave>        </pitch>        <duration>18</duration>        <voice>1</voice>        <type>16th</type>        <dot relative-x="-1"/>        <stem>down</stem>        <beam number="1">continue</beam>        <beam number="2">continue</beam>      </note>      <note>        <pitch>          <step>C</step>          <octave>4</octave>        </pitch>        <duration>18</duration>        <voice>1</voice>        <type>16th</type>        <dot relative-x="-3"/>        <stem>down</stem>        <beam number="1">continue</beam>        <beam number="2">continue</beam>      </note>      <note>        <pitch>          <step>D</step>          <octave>4</octave>        </pitch>        <duration>18</duration>        <voice>1</voice>        <type>16th</type>        <dot relative-x="-2"/>        <stem>down</stem>        <beam number="1">end</beam>        <beam number="2">end</beam>      </note>    </measure>    <!--=======================================================-->    <measure number="5">      <print new-system="yes"/>      <note>        <pitch>          <step>E</step>          <octave>4</octave>        </pitch>        <duration>144</duration>        <voice>1</voice>        <type>half</type>        <dot/>        <stem>down</stem>      </note>      <note>        <pitch>          <step>D</step>          <octave>4</octave>        </pitch>        <duration>72</duration>        <voice>1</voice>        <type>quarter</type>        <dot/>        <stem>down</stem>      </note>    </measure>    <!--=======================================================-->    <measure number="6">      <note>        <pitch>          <step>C</step>          <octave>4</octave>        </pitch>        <duration>24</duration>        <voice>1</voice>        <type>eighth</type>        <stem>down</stem>      </note>      <note>        <pitch>          <step>D</step>          <octave>4</octave>        </pitch>        <duration>24</duration>        <voice>1</voice>        <type>eighth</type>        <stem>down</stem>      </note>      <note>        <pitch>          <step>C</step>          <octave>4</octave>        </pitch>        <duration>48</duration>        <voice>1</voice>        <type>quarter</type>        <stem>down</stem>      </note>      <note>        <pitch>          <step>B</step>          <octave>3</octave>        </pitch>        <duration>72</duration>        <voice>1</voice>        <type>quarter</type>        <dot/>        <stem>up</stem>      </note>      <note>        <pitch>          <step>A</step>          <octave>3</octave>        </pitch>        <duration>72</duration>        <voice>1</voice>        <type>quarter</type>        <dot/>        <stem>up</stem>      </note>    </measure>    <!--=======================================================-->    <measure number="7">      <note print-object="no">        <cue/>        <pitch>          <step>A</step>          <octave>3</octave>        </pitch>        <duration>24</duration>        <voice>1</voice>        <type size="full">eighth</type>        <stem>up</stem>      </note>      <note>        <pitch>          <step>G</step>          <octave>3</octave>        </pitch>        <duration>144</duration>        <voice>1</voice>        <type>half</type>        <dot/>        <stem>up</stem>      </note>      <note>        <pitch>          <step>E</step>          <octave>4</octave>        </pitch>        <duration>48</duration>        <voice>1</voice>        <type>quarter</type>        <stem>down</stem>      </note>    </measure>    <!--=======================================================-->    <measure number="8">      <note>        <pitch>          <step>G</step>          <octave>4</octave>        </pitch>        <duration>24</duration>        <voice>1</voice>        <type>eighth</type>        <stem>down</stem>        <lyric number="1">          <syllabic>begin</syllabic>          <text>fay</text>        </lyric>      </note>      <note>        <pitch>          <step>G</step>          <octave>4</octave>        </pitch>        <duration>24</duration>        <voice>1</voice>        <type>eighth</type>        <stem>down</stem>        <lyric number="1">          <syllabic>end</syllabic>          <text>re</text>          <elision/>          <syllabic>begin</syllabic>          <text>ou</text>        </lyric>      </note>      <note>        <pitch>          <step>G</step>          <octave>4</octave>        </pitch>        <duration>48</duration>        <voice>1</voice>        <type>quarter</type>        <stem>down</stem>        <lyric number="1">          <syllabic>middle</syllabic>          <text>tra</text>        </lyric>      </note>      <note>        <pitch>          <step>F</step>          <octave>4</octave>        </pitch>        <duration>24</duration>        <voice>1</voice>        <type>eighth</type>        <stem>down</stem>      </note>      <note>        <pitch>          <step>E</step>          <octave>4</octave>        </pitch>        <duration>48</duration>        <voice>1</voice>        <type>quarter</type>        <stem>down</stem>      </note>      <note>        <pitch>          <step>D</step>          <octave>4</octave>        </pitch>        <duration>24</duration>        <voice>1</voice>        <type>eighth</type>        <stem>down</stem>      </note>      <note>        <pitch>          <step>C</step>          <octave>4</octave>        </pitch>        <duration>24</duration>        <voice>1</voice>        <type>eighth</type>        <stem>down</stem>      </note>    </measure>    <!--=======================================================-->    <measure number="9">      <print new-system="yes"/>      <note>        <pitch>          <step>B</step>          <octave>3</octave>        </pitch>        <duration>48</duration>        <voice>1</voice>        <type>quarter</type>        <stem>up</stem>      </note>      <note>        <pitch>          <step>C</step>          <octave>4</octave>        </pitch>        <duration>48</duration>        <voice>1</voice>        <type>quarter</type>        <stem>down</stem>      </note>      <note>        <pitch>          <step>D</step>          <octave>4</octave>        </pitch>        <duration>48</duration>        <voice>1</voice>        <type>quarter</type>        <stem>down</stem>      </note>      <note>        <pitch>          <step>F</step>          <octave>4</octave>        </pitch>        <duration>48</duration>        <voice>1</voice>        <type>quarter</type>        <stem>down</stem>      </note>      <note>        <pitch>          <step>D</step>          <octave>4</octave>        </pitch>        <duration>24</duration>        <voice>1</voice>        <type>eighth</type>        <stem>down</stem>      </note>    </measure>    <!--=======================================================-->    <measure number="10">      <note>        <pitch>          <step>E</step>          <octave>4</octave>        </pitch>        <duration>288</duration>        <voice>1</voice>        <type>whole</type>        <dot/>        <notations>          <articulations>            <staccato placement="below" relative-x="20"/>          </articulations>        </notations>        <lyric number="1">          <syllabic>end</syllabic>          <text>ge</text>        </lyric>      </note>    </measure>    <!--=======================================================-->    <measure number="11">      <note print-object="no">        <cue/>        <pitch>          <step>E</step>          <octave>4</octave>        </pitch>        <duration>96</duration>        <voice>1</voice>        <type size="full">half</type>        <stem>down</stem>      </note>      <barline location="right">        <bar-style>light-light</bar-style>      </barline>    </measure>    <!--=======================================================-->    <measure number="12">      <note relative-x="13">        <pitch>          <step>G</step>          <octave>4</octave>        </pitch>        <duration>36</duration>        <voice>1</voice>        <type>quarter</type>        <time-modification>          <actual-notes>4</actual-notes>          <normal-notes>3</normal-notes>          <normal-type>eighth</normal-type>        </time-modification>        <stem>down</stem>        <notations>          <tuplet bracket="yes" number="1" placement="above" type="start">            <tuplet-actual>              <tuplet-number>2</tuplet-number>              <tuplet-type>quarter</tuplet-type>            </tuplet-actual>            <tuplet-normal>              <tuplet-number>3</tuplet-number>              <tuplet-type>eighth</tuplet-type>            </tuplet-normal>          </tuplet>        </notations>        <lyric number="1">          <syllabic>single</syllabic>          <text>2.8.</text>          <elision/>          <syllabic>begin</syllabic>          <text>Gar</text>        </lyric>      </note>      <note relative-x="7">        <pitch>          <step>G</step>          <octave>4</octave>        </pitch>        <duration>36</duration>        <voice>1</voice>        <type>quarter</type>        <time-modification>          <actual-notes>4</actual-notes>          <normal-notes>3</normal-notes>          <normal-type>eighth</normal-type>        </time-modification>        <stem>down</stem>        <notations>          <tuplet number="1" type="stop"/>        </notations>        <lyric number="1">          <syllabic>end</syllabic>          <text>des</text>        </lyric>      </note>      <note>        <pitch>          <step>A</step>          <octave>4</octave>        </pitch>        <duration>12</duration>        <voice>1</voice>        <type>16th</type>        <stem>down</stem>        <beam number="1">begin</beam>        <beam number="2">begin</beam>      </note>      <note>        <pitch>          <step>G</step>          <octave>4</octave>        </pitch>        <duration>12</duration>        <voice>1</voice>        <type>16th</type>        <stem>down</stem>        <beam number="1">continue</beam>        <beam number="2">continue</beam>      </note>      <note>        <pitch>          <step>F</step>          <octave>4</octave>        </pitch>        <duration>12</duration>        <voice>1</voice>        <type>16th</type>        <stem>down</stem>        <beam number="1">continue</beam>        <beam number="2">continue</beam>      </note>      <note>        <pitch>          <step>G</step>          <octave>4</octave>        </pitch>        <duration>12</duration>        <voice>1</voice>        <type>16th</type>        <stem>down</stem>        <beam number="1">continue</beam>        <beam number="2">continue</beam>      </note>      <note>        <pitch>          <step>B</step>          <alter>-1</alter>          <octave>4</octave>        </pitch>        <duration>12</duration>        <voice>1</voice>        <type>16th</type>        <accidental>flat</accidental>        <stem>down</stem>        <beam number="1">continue</beam>        <beam number="2">continue</beam>      </note>      <note>        <pitch>          <step>A</step>          <octave>4</octave>        </pitch>        <duration>12</duration>        <voice>1</voice>        <type>16th</type>        <stem>down</stem>        <beam number="1">end</beam>        <beam number="2">end</beam>      </note>      <note>        <pitch>          <step>G</step>          <octave>4</octave>        </pitch>        <duration>12</duration>        <voice>1</voice>        <type>16th</type>        <stem>down</stem>        <beam number="1">begin</beam>        <beam number="2">begin</beam>      </note>      <note>        <pitch>          <step>A</step>          <octave>4</octave>        </pitch>        <duration>12</duration>        <voice>1</voice>        <type>16th</type>        <stem>down</stem>        <beam number="1">continue</beam>        <beam number="2">continue</beam>      </note>      <note>        <pitch>          <step>F</step>          <octave>4</octave>        </pitch>        <duration>12</duration>        <voice>1</voice>        <type>16th</type>        <stem>down</stem>        <beam number="1">continue</beam>        <beam number="2">continue</beam>      </note>      <note>        <pitch>          <step>G</step>          <octave>4</octave>        </pitch>        <duration>12</duration>        <voice>1</voice>        <type>16th</type>        <stem>down</stem>        <beam number="1">continue</beam>        <beam number="2">continue</beam>      </note>      <note>        <pitch>          <step>A</step>          <octave>4</octave>        </pitch>        <duration>12</duration>        <voice>1</voice>        <type>16th</type>        <stem>down</stem>        <beam number="1">continue</beam>        <beam number="2">continue</beam>      </note>      <note>        <pitch>          <step>G</step>          <octave>4</octave>        </pitch>        <duration>12</duration>        <voice>1</voice>        <type>16th</type>        <stem>down</stem>        <beam number="1">end</beam>        <beam number="2">end</beam>      </note>    </measure>    <!--=======================================================-->    <measure number="13">      <note>        <pitch>          <step>C</step>          <octave>4</octave>        </pitch>        <duration>96</duration>        <voice>1</voice>        <type>half</type>        <stem>down</stem>        <lyric number="1">          <syllabic>single</syllabic>          <text>vos</text>        </lyric>      </note>      <note>        <pitch>          <step>D</step>          <octave>4</octave>        </pitch>        <duration>48</duration>        <voice>1</voice>        <type>quarter</type>        <stem>down</stem>      </note>      <note>        <pitch>          <step>E</step>          <octave>4</octave>        </pitch>        <duration>24</duration>        <voice>1</voice>        <type>eighth</type>        <stem>down</stem>        <beam number="1">begin</beam>      </note>      <note>        <pitch>          <step>C</step>          <octave>4</octave>        </pitch>        <duration>24</duration>        <voice>1</voice>        <type>eighth</type>        <stem>down</stem>        <beam number="1">end</beam>      </note>      <note>        <pitch>          <step>B</step>          <octave>3</octave>        </pitch>        <duration>144</duration>        <voice>1</voice>        <type>half</type>        <dot/>        <stem>up</stem>      </note>    </measure>    <!--=======================================================-->    <measure number="14">      <print new-system="yes"/>      <note print-object="no">        <cue/>        <pitch>          <step>B</step>          <octave>3</octave>        </pitch>        <duration>24</duration>        <voice>1</voice>        <type size="full">eighth</type>        <stem>up</stem>      </note>      <note print-object="no">        <cue/>        <pitch>          <step>B</step>          <octave>3</octave>        </pitch>        <duration>96</duration>        <voice>1</voice>        <type size="full">half</type>        <stem>up</stem>      </note>      <note>        <pitch>          <step>A</step>          <octave>3</octave>        </pitch>        <duration>48</duration>        <voice>1</voice>        <type>quarter</type>        <stem>up</stem>      </note>      <note>        <pitch>          <step>B</step>          <octave>3</octave>        </pitch>        <duration>24</duration>        <voice>1</voice>        <type>eighth</type>        <stem>up</stem>        <beam number="1">begin</beam>      </note>      <note>        <pitch>          <step>C</step>          <octave>4</octave>        </pitch>        <duration>24</duration>        <voice>1</voice>        <type>eighth</type>        <stem>up</stem>        <beam number="1">end</beam>      </note>    </measure>    <!--=======================================================-->    <measure number="15">      <note>        <pitch>          <step>D</step>          <octave>4</octave>        </pitch>        <duration>48</duration>        <voice>1</voice>        <type>quarter</type>        <stem>down</stem>        <lyric number="1">          <syllabic>begin</syllabic>          <text>ar</text>        </lyric>      </note>      <note>        <pitch>          <step>D</step>          <octave>4</octave>        </pitch>        <duration>48</duration>        <voice>1</voice>        <type>quarter</type>        <stem>down</stem>        <lyric number="1">          <syllabic>end</syllabic>          <text>dit</text>        </lyric>      </note>      <note>        <pitch>          <step>E</step>          <octave>4</octave>        </pitch>        <duration>24</duration>        <voice>1</voice>        <type>eighth</type>        <stem>down</stem>      </note>      <note>        <pitch>          <step>F</step>          <alter>1</alter>          <octave>4</octave>        </pitch>        <duration>48</duration>        <voice>1</voice>        <type>quarter</type>        <stem>down</stem>      </note>      <note>        <pitch>          <step>G</step>          <octave>4</octave>        </pitch>        <duration>24</duration>        <voice>1</voice>        <type>eighth</type>        <stem>down</stem>        <beam number="1">begin</beam>      </note>      <note>        <pitch>          <step>A</step>          <octave>4</octave>        </pitch>        <duration>24</duration>        <voice>1</voice>        <type>eighth</type>        <stem>down</stem>        <beam number="1">end</beam>      </note>    </measure>    <!--=======================================================-->    <measure number="16">      <note>        <pitch>          <step>G</step>          <octave>4</octave>        </pitch>        <duration>48</duration>        <voice>1</voice>        <type>quarter</type>        <stem>down</stem>        <lyric number="1">          <syllabic>single</syllabic>          <text>de</text>        </lyric>      </note>      <note>        <pitch>          <step>F</step>          <octave>4</octave>        </pitch>        <duration>48</duration>        <voice>1</voice>        <type>quarter</type>        <stem>down</stem>      </note>      <note>        <pitch>          <step>E</step>          <octave>4</octave>        </pitch>        <duration>24</duration>        <voice>1</voice>        <type>eighth</type>        <stem>down</stem>      </note>      <note>        <pitch>          <step>D</step>          <octave>4</octave>        </pitch>        <duration>24</duration>        <voice>1</voice>        <type>eighth</type>        <stem>down</stem>        <beam number="1">begin</beam>      </note>      <note>        <pitch>          <step>C</step>          <octave>4</octave>        </pitch>        <duration>24</duration>        <voice>1</voice>        <type>eighth</type>        <stem>down</stem>        <beam number="1">continue</beam>      </note>      <note>        <pitch>          <step>D</step>          <octave>4</octave>        </pitch>        <duration>24</duration>        <voice>1</voice>        <type>eighth</type>        <stem>down</stem>        <beam number="1">continue</beam>      </note>      <note>        <pitch>          <step>B</step>          <octave>3</octave>        </pitch>        <duration>24</duration>        <voice>1</voice>        <type>eighth</type>        <stem>down</stem>        <beam number="1">end</beam>      </note>    </measure>    <!--=======================================================-->    <measure number="17">      <note>        <pitch>          <step>C</step>          <octave>4</octave>        </pitch>        <duration>288</duration>        <voice>1</voice>        <type>whole</type>        <dot/>        <notations>          <articulations>            <staccato placement="below" relative-x="20"/>          </articulations>        </notations>        <lyric number="1">          <syllabic>single</syllabic>          <text>moy.</text>        </lyric>      </note>    </measure>    <!--=======================================================-->    <measure number="18">      <note print-object="no">        <cue/>        <pitch>          <step>C</step>          <octave>4</octave>        </pitch>        <duration>96</duration>        <voice>1</voice>        <type size="full">half</type>        <stem>down</stem>      </note>      <barline location="right">        <bar-style>light-heavy</bar-style>      </barline>    </measure>  </part>  <!--=========================================================-->  <part id="P2">    <measure number="1">      <attributes>        <divisions>2</divisions>        <key>          <fifths>0</fifths>          <mode>major</mode>        </key>        <clef>          <sign>F</sign>          <line>4</line>        </clef>      </attributes>      <sound tempo="96"/>      <direction placement="below">        <direction-type>          <words font-family="Times" font-size="7.5" font-style="italic">C</words>          <words font-family="Times" font-size="7.5">ontratenor</words>        </direction-type>      </direction>      <note>        <pitch>          <step>C</step>          <octave>3</octave>        </pitch>        <duration>3</duration>        <voice>1</voice>        <type>quarter</type>        <dot/>        <stem>up</stem>      </note>      <note>        <pitch>          <step>G</step>          <octave>3</octave>        </pitch>        <duration>2</duration>        <voice>1</voice>        <type>quarter</type>        <stem>down</stem>      </note>      <note>        <pitch>          <step>D</step>          <octave>3</octave>        </pitch>        <duration>6</duration>        <voice>1</voice>        <type>half</type>        <dot/>        <stem>down</stem>      </note>    </measure>    <!--=======================================================-->    <measure number="2">      <note print-object="no">        <cue/>        <pitch>          <step>D</step>          <octave>3</octave>        </pitch>        <duration>2</duration>        <voice>1</voice>        <type size="full">quarter</type>        <stem>down</stem>      </note>      <note>        <pitch>          <step>A</step>          <octave>3</octave>        </pitch>        <duration>2</duration>        <voice>1</voice>        <type>quarter</type>        <stem>down</stem>      </note>      <note>        <pitch>          <step>G</step>          <octave>3</octave>        </pitch>        <duration>3</duration>        <voice>1</voice>        <type>quarter</type>        <dot/>        <stem>down</stem>      </note>      <note>        <pitch>          <step>E</step>          <octave>3</octave>        </pitch>        <duration>2</duration>        <voice>1</voice>        <type>quarter</type>        <stem>down</stem>      </note>    </measure>    <!--=======================================================-->    <measure number="3">      <note>        <rest/>        <duration>1</duration>        <voice>1</voice>        <type>eighth</type>      </note>      <note>        <rest/>        <duration>1</duration>        <voice>1</voice>        <type>eighth</type>      </note>      <note>        <pitch>          <step>C</step>          <octave>3</octave>        </pitch>        <duration>1</duration>        <voice>1</voice>        <type>eighth</type>        <stem>up</stem>      </note>      <note>        <rest/>        <duration>1</duration>        <voice>1</voice>        <type>eighth</type>      </note>      <note>        <rest/>        <duration>1</duration>        <voice>1</voice>        <type>eighth</type>      </note>      <note>        <pitch>          <step>F</step>          <octave>3</octave>        </pitch>        <duration>1</duration>        <voice>1</voice>        <type>eighth</type>        <stem>down</stem>      </note>      <note>        <pitch>          <step>D</step>          <octave>3</octave>        </pitch>        <duration>2</duration>        <voice>1</voice>        <type>quarter</type>        <stem>down</stem>      </note>      <note>        <pitch>          <step>D</step>          <octave>3</octave>        </pitch>        <duration>1</duration>        <voice>1</voice>        <type>eighth</type>        <stem>down</stem>      </note>    </measure>    <!--=======================================================-->    <measure number="4">      <note>        <pitch>          <step>F</step>          <octave>3</octave>        </pitch>        <duration>3</duration>        <voice>1</voice>        <type>quarter</type>        <dot/>        <stem>down</stem>      </note>      <note>        <rest/>        <duration>1</duration>        <voice>1</voice>        <type>eighth</type>      </note>      <note>        <rest/>        <duration>1</duration>        <voice>1</voice>        <type>eighth</type>      </note>      <note>        <pitch>          <step>E</step>          <octave>3</octave>        </pitch>        <duration>1</duration>        <voice>1</voice>        <type>eighth</type>        <stem>down</stem>      </note>      <note>        <pitch>          <step>C</step>          <octave>3</octave>        </pitch>        <duration>2</duration>        <voice>1</voice>        <type>quarter</type>        <stem>up</stem>      </note>      <note>        <pitch>          <step>D</step>          <octave>3</octave>        </pitch>        <duration>1</duration>        <voice>1</voice>        <type>eighth</type>        <stem>down</stem>      </note>    </measure>    <!--=======================================================-->    <measure number="5">      <print new-system="yes"/>      <note>        <pitch>          <step>E</step>          <octave>3</octave>        </pitch>        <duration>3</duration>        <voice>1</voice>        <type>quarter</type>        <dot/>        <stem>down</stem>      </note>      <note>        <rest/>        <duration>1</duration>        <voice>1</voice>        <type>eighth</type>      </note>      <note>        <rest/>        <duration>1</duration>        <voice>1</voice>        <type>eighth</type>      </note>      <note>        <pitch>          <step>G</step>          <octave>3</octave>        </pitch>        <duration>1</duration>        <voice>1</voice>        <type>eighth</type>        <stem>down</stem>      </note>      <note>        <pitch>          <step>F</step>          <octave>3</octave>        </pitch>        <duration>2</duration>        <voice>1</voice>        <type>quarter</type>        <stem>down</stem>      </note>      <note>        <pitch>          <step>E</step>          <octave>3</octave>        </pitch>        <duration>1</duration>        <voice>1</voice>        <type>eighth</type>        <stem>down</stem>      </note>    </measure>    <!--=======================================================-->    <measure number="6">      <note>        <pitch>          <step>D</step>          <octave>3</octave>        </pitch>        <duration>3</duration>        <voice>1</voice>        <type>quarter</type>        <dot/>        <stem>down</stem>      </note>      <note>        <rest/>        <duration>1</duration>        <voice>1</voice>        <type>eighth</type>      </note>      <note>        <rest/>        <duration>1</duration>        <voice>1</voice>        <type>eighth</type>      </note>      <note>        <pitch>          <step>E</step>          <octave>3</octave>        </pitch>        <duration>3</duration>        <voice>1</voice>        <type>quarter</type>        <dot/>        <stem>down</stem>      </note>      <note>        <pitch>          <step>D</step>          <octave>3</octave>        </pitch>        <duration>1</duration>        <voice>1</voice>        <type>eighth</type>        <stem>down</stem>      </note>    </measure>    <!--=======================================================-->    <measure number="7">      <note>        <pitch>          <step>C</step>          <octave>3</octave>        </pitch>        <duration>3</duration>        <voice>1</voice>        <type>quarter</type>        <dot/>        <stem>up</stem>      </note>      <note>        <rest/>        <duration>1</duration>        <voice>1</voice>        <type>eighth</type>      </note>      <note>        <rest/>        <duration>1</duration>        <voice>1</voice>        <type>eighth</type>      </note>      <note>        <pitch>          <step>C</step>          <octave>4</octave>        </pitch>        <duration>1</duration>        <voice>1</voice>        <type>eighth</type>        <stem>down</stem>      </note>      <note>        <pitch>          <step>B</step>          <alter>-1</alter>          <octave>3</octave>        </pitch>        <duration>2</duration>        <voice>1</voice>        <type>quarter</type>        <stem>down</stem>      </note>      <note>        <pitch>          <step>A</step>          <octave>3</octave>        </pitch>        <duration>1</duration>        <voice>1</voice>        <type>eighth</type>        <stem>down</stem>      </note>    </measure>    <!--=======================================================-->    <measure number="8">      <note>        <pitch>          <step>G</step>          <octave>3</octave>        </pitch>        <duration>2</duration>        <voice>1</voice>        <type>quarter</type>        <stem>down</stem>      </note>      <note>        <pitch>          <step>A</step>          <octave>3</octave>        </pitch>        <duration>2</duration>        <voice>1</voice>        <type>quarter</type>        <stem>down</stem>      </note>      <note>        <pitch>          <step>G</step>          <octave>3</octave>        </pitch>        <duration>2</duration>        <voice>1</voice>        <type>quarter</type>        <stem>down</stem>      </note>      <note>        <pitch>          <step>A</step>          <octave>3</octave>        </pitch>        <duration>2</duration>        <voice>1</voice>        <type>quarter</type>        <stem>down</stem>      </note>      <note>        <pitch>          <step>F</step>          <octave>3</octave>        </pitch>        <duration>1</duration>        <voice>1</voice>        <type>eighth</type>        <stem>down</stem>      </note>    </measure>    <!--=======================================================-->    <measure number="9">      <print new-system="yes"/>      <note>        <pitch>          <step>E</step>          <octave>3</octave>        </pitch>        <duration>3</duration>        <voice>1</voice>        <type>quarter</type>        <dot/>        <stem>down</stem>      </note>      <note>        <pitch>          <step>D</step>          <octave>3</octave>        </pitch>        <duration>1</duration>        <voice>1</voice>        <type>eighth</type>        <stem>down</stem>      </note>      <note>        <pitch>          <step>E</step>          <octave>3</octave>        </pitch>        <duration>2</duration>        <voice>1</voice>        <type>quarter</type>        <stem>down</stem>      </note>      <note>        <pitch>          <step>F</step>          <octave>3</octave>        </pitch>        <duration>3</duration>        <voice>1</voice>        <type>quarter</type>        <dot/>        <stem>down</stem>      </note>    </measure>    <!--=======================================================-->    <measure number="10">      <note>        <pitch>          <step>G</step>          <octave>3</octave>        </pitch>        <duration>12</duration>        <voice>1</voice>        <type>whole</type>        <dot/>        <notations>          <articulations>            <staccato placement="above" relative-x="20"/>          </articulations>        </notations>      </note>    </measure>    <!--=======================================================-->    <measure number="11">      <note print-object="no">        <cue/>        <pitch>          <step>G</step>          <octave>3</octave>        </pitch>        <duration>4</duration>        <voice>1</voice>        <type size="full">half</type>        <stem>down</stem>      </note>      <barline location="right">        <bar-style>light-light</bar-style>      </barline>    </measure>    <!--=======================================================-->    <measure number="12">      <note relative-x="12">        <pitch>          <step>C</step>          <octave>3</octave>        </pitch>        <duration>4</duration>        <voice>1</voice>        <type>half</type>        <stem>up</stem>      </note>      <note>        <pitch>          <step>E</step>          <octave>3</octave>        </pitch>        <duration>1</duration>        <voice>1</voice>        <type>eighth</type>        <stem>down</stem>        <beam number="1">begin</beam>      </note>      <note>        <pitch>          <step>F</step>          <octave>3</octave>        </pitch>        <duration>1</duration>        <voice>1</voice>        <type>eighth</type>        <stem>down</stem>        <beam number="1">end</beam>      </note>      <note>        <pitch>          <step>G</step>          <octave>3</octave>        </pitch>        <duration>2</duration>        <voice>1</voice>        <type>quarter</type>        <stem>down</stem>      </note>      <note>        <pitch>          <step>E</step>          <octave>3</octave>        </pitch>        <duration>1</duration>        <voice>1</voice>        <type>eighth</type>        <stem>down</stem>      </note>    </measure>    <!--=======================================================-->    <measure number="13">      <note>        <pitch>          <step>C</step>          <octave>3</octave>        </pitch>        <duration>4</duration>        <voice>1</voice>        <type>half</type>        <stem>up</stem>      </note>      <note>        <pitch>          <step>G</step>          <octave>3</octave>        </pitch>        <duration>3</duration>        <voice>1</voice>        <type>quarter</type>        <dot/>        <stem>down</stem>      </note>      <note>        <pitch>          <step>D</step>          <octave>3</octave>        </pitch>        <duration>3</duration>        <voice>1</voice>        <type>quarter</type>        <dot/>        <stem>down</stem>      </note>    </measure>    <!--=======================================================-->    <measure number="14">      <print new-system="yes"/>      <note print-object="no">        <cue/>        <pitch>          <step>D</step>          <octave>3</octave>        </pitch>        <duration>1</duration>        <voice>1</voice>        <type size="full">eighth</type>        <stem>down</stem>      </note>      <note>        <pitch>          <step>E</step>          <octave>3</octave>        </pitch>        <duration>3</duration>        <voice>1</voice>        <type>quarter</type>        <dot/>        <stem>down</stem>      </note>      <note>        <pitch>          <step>G</step>          <octave>3</octave>        </pitch>        <duration>3</duration>        <voice>1</voice>        <type>quarter</type>        <dot/>        <stem>down</stem>      </note>      <note>        <pitch>          <step>F</step>          <octave>3</octave>        </pitch>        <duration>1</duration>        <voice>1</voice>        <type>eighth</type>        <stem>down</stem>        <beam number="1">begin</beam>      </note>      <note>        <pitch>          <step>G</step>          <octave>3</octave>        </pitch>        <duration>1</duration>        <voice>1</voice>        <type>eighth</type>        <stem>down</stem>        <beam number="1">end</beam>      </note>    </measure>    <!--=======================================================-->    <measure number="15">      <note>        <pitch>          <step>A</step>          <octave>3</octave>        </pitch>        <duration>6</duration>        <voice>1</voice>        <type>half</type>        <dot/>        <stem>down</stem>        <notations>          <articulations>            <staccato placement="below" relative-x="17"/>          </articulations>        </notations>      </note>    </measure>    <!--=======================================================-->    <measure number="16">      <note>        <pitch>          <step>B</step>          <alter>-1</alter>          <octave>3</octave>        </pitch>        <duration>1</duration>        <voice>1</voice>        <type>eighth</type>        <stem>down</stem>      </note>      <note>        <pitch>          <step>A</step>          <octave>3</octave>        </pitch>        <duration>1</duration>        <voice>1</voice>        <type>eighth</type>        <stem>down</stem>      </note>      <note>        <pitch>          <step>B</step>          <alter>-1</alter>          <octave>3</octave>        </pitch>        <duration>2</duration>        <voice>1</voice>        <type>quarter</type>        <stem>down</stem>      </note>      <note>        <pitch>          <step>G</step>          <octave>3</octave>        </pitch>        <duration>1</duration>        <voice>1</voice>        <type>eighth</type>        <stem>down</stem>      </note>      <note>        <pitch>          <step>A</step>          <octave>3</octave>        </pitch>        <duration>2</duration>        <voice>1</voice>        <type>quarter</type>        <stem>down</stem>      </note>      <note>        <pitch>          <step>G</step>          <octave>3</octave>        </pitch>        <duration>1</duration>        <voice>1</voice>        <type>eighth</type>        <stem>down</stem>      </note>      <note>        <pitch>          <step>F</step>          <alter>1</alter>          <octave>3</octave>        </pitch>        <duration>1</duration>        <voice>1</voice>        <type>eighth</type>        <stem>down</stem>      </note>    </measure>    <!--=======================================================-->    <measure number="17">      <note>        <pitch>          <step>G</step>          <octave>3</octave>        </pitch>        <duration>12</duration>        <voice>1</voice>        <type>whole</type>        <dot/>        <notations>          <articulations>            <staccato placement="above" relative-x="20"/>          </articulations>        </notations>      </note>    </measure>    <!--=======================================================-->    <measure number="18">      <note print-object="no">        <cue/>        <pitch>          <step>G</step>          <octave>3</octave>        </pitch>        <duration>4</duration>        <voice>1</voice>        <type size="full">half</type>        <stem>down</stem>      </note>      <barline location="right">        <bar-style>light-heavy</bar-style>      </barline>    </measure>  </part>  <!--=========================================================-->  <part id="P3">    <measure number="1">      <attributes>        <divisions>2</divisions>        <key>          <fifths>0</fifths>          <mode>major</mode>        </key>        <clef>          <sign>F</sign>          <line>4</line>        </clef>      </attributes>      <sound tempo="96"/>      <direction placement="below">        <direction-type>          <words font-family="Times" font-size="7.5" font-style="italic">T</words>          <words font-family="Times" font-size="7.5">enor</words>        </direction-type>      </direction>      <note>        <pitch>          <step>C</step>          <octave>4</octave>        </pitch>        <duration>3</duration>        <voice>1</voice>        <type>quarter</type>        <dot/>        <stem>down</stem>        <notations>          <slide line-type="solid" number="1" type="start"/>        </notations>      </note>      <note>        <pitch>          <step>B</step>          <alter>-1</alter>          <octave>3</octave>        </pitch>        <duration>3</duration>        <voice>1</voice>        <type>quarter</type>        <dot/>        <stem>down</stem>        <notations>          <slide line-type="solid" number="1" type="stop"/>        </notations>      </note>      <note>        <rest/>        <duration>1</duration>        <voice>1</voice>        <type>eighth</type>      </note>      <note>        <rest/>        <duration>1</duration>        <voice>1</voice>        <type>eighth</type>      </note>      <note>        <pitch>          <step>F</step>          <octave>3</octave>        </pitch>        <duration>1</duration>        <voice>1</voice>        <type>eighth</type>        <stem>down</stem>      </note>    </measure>    <!--=======================================================-->    <measure number="2">      <note>        <pitch>          <step>G</step>          <octave>3</octave>        </pitch>        <duration>2</duration>        <voice>1</voice>        <type>quarter</type>        <stem>down</stem>      </note>      <note>        <pitch>          <step>D</step>          <octave>3</octave>        </pitch>        <duration>1</duration>        <voice>1</voice>        <type>eighth</type>        <stem>down</stem>      </note>      <note>        <rest/>        <duration>1</duration>        <voice>1</voice>        <type>eighth</type>      </note>      <note>        <rest/>        <duration>1</duration>        <voice>1</voice>        <type>eighth</type>      </note>      <note>        <pitch>          <step>C</step>          <octave>3</octave>        </pitch>        <duration>1</duration>        <voice>1</voice>        <type>eighth</type>        <stem>up</stem>      </note>      <note>        <pitch>          <step>C</step>          <octave>3</octave>        </pitch>        <duration>3</duration>        <voice>1</voice>        <type>quarter</type>        <dot/>        <stem>up</stem>      </note>    </measure>    <!--=======================================================-->    <measure number="3">      <note>        <pitch>          <step>C</step>          <octave>4</octave>        </pitch>        <duration>6</duration>        <voice>1</voice>        <type>half</type>        <dot/>        <stem>down</stem>      </note>      <note>        <pitch>          <step>D</step>          <octave>4</octave>        </pitch>        <duration>3</duration>        <voice>1</voice>        <type>quarter</type>        <dot/>        <stem>down</stem>      </note>    </measure>    <!--=======================================================-->    <measure number="4">      <note>        <pitch>          <step>A</step>          <octave>3</octave>        </pitch>        <duration>3</duration>        <voice>1</voice>        <type>quarter</type>        <dot/>        <stem>down</stem>      </note>      <note>        <pitch>          <step>G</step>          <octave>3</octave>        </pitch>        <duration>6</duration>        <voice>1</voice>        <type>half</type>        <dot/>        <stem>down</stem>      </note>    </measure>    <!--=======================================================-->    <measure number="5">      <print new-system="yes"/>      <note>        <pitch>          <step>E</step>          <octave>3</octave>        </pitch>        <duration>3</duration>        <voice>1</voice>        <type>quarter</type>        <dot/>        <stem>down</stem>        <notations>          <slide line-type="solid" number="1" type="start"/>        </notations>      </note>      <note>        <pitch>          <step>C</step>          <octave>3</octave>        </pitch>        <duration>3</duration>        <voice>1</voice>        <type>quarter</type>        <dot/>        <stem>up</stem>        <notations>          <slide line-type="solid" number="1" type="stop"/>        </notations>      </note>      <note>        <pitch>          <step>D</step>          <octave>3</octave>        </pitch>        <duration>3</duration>        <voice>1</voice>        <type>quarter</type>        <dot/>        <stem>down</stem>      </note>    </measure>    <!--=======================================================-->    <measure number="6">      <note>        <pitch>          <step>F</step>          <octave>3</octave>        </pitch>        <duration>3</duration>        <voice>1</voice>        <type>quarter</type>        <dot/>        <stem>down</stem>        <notations>          <slide line-type="solid" number="1" type="start"/>        </notations>      </note>      <note>        <pitch>          <step>E</step>          <octave>3</octave>        </pitch>        <duration>3</duration>        <voice>1</voice>        <type>quarter</type>        <dot/>        <stem>down</stem>        <notations>          <slide line-type="solid" number="1" type="stop"/>        </notations>      </note>      <note>        <pitch>          <step>F</step>          <octave>3</octave>        </pitch>        <duration>3</duration>        <voice>1</voice>        <type>quarter</type>        <dot/>        <stem>down</stem>        <notations>          <slide line-type="solid" number="1" type="start"/>        </notations>      </note>    </measure>    <!--=======================================================-->    <measure number="7">      <note>        <pitch>          <step>G</step>          <octave>3</octave>        </pitch>        <duration>3</duration>        <voice>1</voice>        <type>quarter</type>        <dot/>        <stem>down</stem>        <notations>          <slide line-type="solid" number="1" type="stop"/>        </notations>      </note>      <note>        <rest/>        <duration>1</duration>        <voice>1</voice>        <type>eighth</type>      </note>      <note>        <rest/>        <duration>1</duration>        <voice>1</voice>        <type>eighth</type>      </note>      <note>        <pitch>          <step>C</step>          <octave>3</octave>        </pitch>        <duration>1</duration>        <voice>1</voice>        <type>eighth</type>        <stem>up</stem>      </note>      <note>        <pitch>          <step>C</step>          <octave>3</octave>        </pitch>        <duration>3</duration>        <voice>1</voice>        <type>quarter</type>        <dot/>        <stem>up</stem>      </note>    </measure>    <!--=======================================================-->    <measure number="8">      <note>        <pitch>          <step>C</step>          <octave>3</octave>        </pitch>        <duration>6</duration>        <voice>1</voice>        <type>half</type>        <dot/>        <stem>up</stem>        <notations>          <articulations>            <staccato placement="above" relative-x="17"/>          </articulations>        </notations>      </note>    </measure>    <!--=======================================================-->    <measure number="9">      <print new-system="yes"/>      <note>        <pitch>          <step>G</step>          <octave>3</octave>        </pitch>        <duration>3</duration>        <voice>1</voice>        <type>quarter</type>        <dot/>        <stem>down</stem>      </note>      <note>        <pitch>          <step>A</step>          <octave>3</octave>        </pitch>        <duration>1</duration>        <voice>1</voice>        <type>eighth</type>        <stem>down</stem>      </note>      <note>        <pitch>          <step>G</step>          <octave>3</octave>        </pitch>        <duration>2</duration>        <voice>1</voice>        <type>quarter</type>        <stem>down</stem>      </note>      <note>        <pitch>          <step>D</step>          <octave>3</octave>        </pitch>        <duration>3</duration>        <voice>1</voice>        <type>quarter</type>        <dot/>        <stem>down</stem>      </note>    </measure>    <!--=======================================================-->    <measure number="10">      <note>        <pitch>          <step>C</step>          <octave>3</octave>        </pitch>        <duration>12</duration>        <voice>1</voice>        <type>whole</type>        <dot/>        <notations>          <articulations>            <staccato placement="above" relative-x="20"/>          </articulations>        </notations>      </note>    </measure>    <!--=======================================================-->    <measure number="11">      <note print-object="no">        <cue/>        <pitch>          <step>C</step>          <octave>3</octave>        </pitch>        <duration>4</duration>        <voice>1</voice>        <type size="full">half</type>        <stem>up</stem>      </note>      <barline location="right">        <bar-style>light-light</bar-style>      </barline>    </measure>    <!--=======================================================-->    <measure number="12">      <note relative-x="13">        <pitch>          <step>G</step>          <octave>3</octave>        </pitch>        <duration>3</duration>        <voice>1</voice>        <type>quarter</type>        <dot/>        <stem>down</stem>      </note>      <note>        <pitch>          <step>C</step>          <octave>3</octave>        </pitch>        <duration>6</duration>        <voice>1</voice>        <type>half</type>        <dot/>        <stem>up</stem>      </note>    </measure>    <!--=======================================================-->    <measure number="13">      <note>        <pitch>          <step>C</step>          <octave>4</octave>        </pitch>        <duration>3</duration>        <voice>1</voice>        <type>quarter</type>        <dot/>        <stem>down</stem>        <notations>          <slide line-type="solid" number="1" type="start"/>        </notations>      </note>      <note>        <pitch>          <step>B</step>          <alter>-1</alter>          <octave>3</octave>        </pitch>        <duration>3</duration>        <voice>1</voice>        <type>quarter</type>        <dot/>        <stem>down</stem>        <notations>          <slide line-type="solid" number="1" type="stop"/>        </notations>      </note>      <note>        <pitch>          <step>A</step>          <octave>3</octave>        </pitch>        <duration>3</duration>        <voice>1</voice>        <type>quarter</type>        <dot/>        <stem>down</stem>        <notations>          <slide line-type="solid" number="1" type="start"/>        </notations>      </note>    </measure>    <!--=======================================================-->    <measure number="14">      <print new-system="yes"/>      <note>        <pitch>          <step>G</step>          <octave>3</octave>        </pitch>        <duration>3</duration>        <voice>1</voice>        <type>quarter</type>        <dot/>        <stem>down</stem>        <notations>          <slide line-type="solid" number="1" type="stop"/>        </notations>      </note>      <note>        <pitch>          <step>F</step>          <octave>3</octave>        </pitch>        <duration>3</duration>        <voice>1</voice>        <type>quarter</type>        <dot/>        <stem>down</stem>        <notations>          <slide line-type="solid" number="1" type="start"/>        </notations>      </note>      <note>        <pitch>          <step>E</step>          <octave>3</octave>        </pitch>        <duration>3</duration>        <voice>1</voice>        <type>quarter</type>        <dot/>        <stem>down</stem>      </note>    </measure>    <!--=======================================================-->    <measure number="15">      <note>        <pitch>          <step>D</step>          <octave>3</octave>        </pitch>        <duration>6</duration>        <voice>1</voice>        <type>half</type>        <dot/>        <stem>down</stem>        <notations>          <slide line-type="solid" number="1" type="stop"/>          <articulations>            <staccato placement="below" relative-x="17"/>          </articulations>        </notations>      </note>    </measure>    <!--=======================================================-->    <measure number="16">      <note>        <pitch>          <step>G</step>          <octave>3</octave>        </pitch>        <duration>3</duration>        <voice>1</voice>        <type>quarter</type>        <dot/>        <stem>down</stem>      </note>      <note>        <pitch>          <step>F</step>          <octave>3</octave>        </pitch>        <duration>3</duration>        <voice>1</voice>        <type>quarter</type>        <dot/>        <stem>down</stem>      </note>      <note>        <pitch>          <step>E</step>          <octave>3</octave>        </pitch>        <duration>2</duration>        <voice>1</voice>        <type>quarter</type>        <stem>down</stem>      </note>      <note>        <pitch>          <step>D</step>          <octave>3</octave>        </pitch>        <duration>1</duration>        <voice>1</voice>        <type>eighth</type>        <stem>down</stem>      </note>    </measure>    <!--=======================================================-->    <measure number="17">      <note>        <pitch>          <step>C</step>          <octave>3</octave>        </pitch>        <duration>12</duration>        <voice>1</voice>        <type>whole</type>        <dot/>        <notations>          <articulations>            <staccato placement="above" relative-x="20"/>          </articulations>        </notations>      </note>    </measure>    <!--=======================================================-->    <measure number="18">      <note print-object="no">        <cue/>        <pitch>          <step>D</step>          <octave>3</octave>        </pitch>        <duration>4</duration>        <voice>1</voice>        <type size="full">half</type>        <stem>down</stem>      </note>      <barline location="right">        <bar-style>light-heavy</bar-style>      </barline>    </measure>  </part>  <!--=========================================================--></score-partwise>