<?xml version="1.0" encoding="UTF-8"?><!DOCTYPE score-partwise PUBLIC "-//Recordare//DTD MusicXML 1.0 Partwise//EN"                                "http://www.musicxml.org/dtds/partwise.dtd"><score-partwise>  <identification>    <encoding>      <software>Finale for Macintosh</software>      <software>Dolet Light for Finale 2006</software>      <encoding-date>2006-11-07</encoding-date>    </encoding>  </identification>  <part-list>    <part-group number="1" type="start">      <group-symbol>bracket</group-symbol>      <group-barline>Mensurstrich</group-barline>    </part-group>    <score-part id="P1">      <part-name>Trip</part-name>      <score-instrument id="P1-I3">        <instrument-name>Clarinet</instrument-name>      </score-instrument>      <midi-instrument id="P1-I3">        <midi-channel>3</midi-channel>        <midi-program>72</midi-program>      </midi-instrument>    </score-part>    <score-part id="P2">      <part-name>S</part-name>      <score-instrument id="P2-I3">        <instrument-name>Clarinet</instrument-name>      </score-instrument>      <midi-instrument id="P2-I3">        <midi-channel>3</midi-channel>        <midi-program>72</midi-program>      </midi-instrument>    </score-part>    <score-part id="P3">      <part-name>Ct</part-name>      <score-instrument id="P3-I5">        <instrument-name>Jazz Guitar</instrument-name>      </score-instrument>      <midi-instrument id="P3-I5">        <midi-channel>6</midi-channel>        <midi-program>27</midi-program>      </midi-instrument>    </score-part>    <score-part id="P4">      <part-name>T</part-name>      <score-instrument id="P4-I16">        <instrument-name>Violin</instrument-name>      </score-instrument>      <midi-instrument id="P4-I16">        <midi-channel>15</midi-channel>        <midi-program>41</midi-program>      </midi-instrument>    </score-part>    <part-group number="1" type="stop"/>  </part-list>  <!--=========================================================-->  <part id="P1">    <measure number="1">      <attributes>        <divisions>2</divisions>        <key>          <fifths>-1</fifths>          <mode>major</mode>        </key>        <time>          <beats>2</beats>          <beat-type>4</beat-type>        </time>        <clef>          <sign>C</sign>          <line>3</line>        </clef>      </attributes>      <sound tempo="96"/>      <note>        <pitch>          <step>D</step>          <octave>4</octave>        </pitch>        <duration>2</duration>        <voice>1</voice>        <type>quarter</type>        <stem>down</stem>      </note>      <note>        <pitch>          <step>E</step>          <octave>4</octave>        </pitch>        <duration>1</duration>        <voice>1</voice>        <type>eighth</type>        <stem>down</stem>        <beam number="1">begin</beam>      </note>      <note>        <pitch>          <step>F</step>          <octave>4</octave>        </pitch>        <duration>1</duration>        <voice>1</voice>        <type>eighth</type>        <stem>down</stem>        <beam number="1">end</beam>      </note>    </measure>    <!--=======================================================-->    <measure number="2">      <note>        <pitch>          <step>G</step>          <octave>4</octave>        </pitch>        <duration>1</duration>        <voice>1</voice>        <type>eighth</type>        <stem>down</stem>      </note>      <note>        <pitch>          <step>E</step>          <octave>4</octave>        </pitch>        <duration>2</duration>        <voice>1</voice>        <type>quarter</type>        <stem>down</stem>      </note>      <note>        <pitch>          <step>D</step>          <octave>4</octave>        </pitch>        <duration>1</duration>        <voice>1</voice>        <type>eighth</type>        <stem>down</stem>      </note>    </measure>    <!--=======================================================-->    <measure number="3">      <note>        <pitch>          <step>G</step>          <octave>4</octave>        </pitch>        <duration>1</duration>        <voice>1</voice>        <type>eighth</type>        <stem>down</stem>        <beam number="1">begin</beam>      </note>      <note>        <pitch>          <step>A</step>          <octave>4</octave>        </pitch>        <duration>1</duration>        <voice>1</voice>        <type>eighth</type>        <stem>down</stem>        <beam number="1">end</beam>      </note>      <note>        <pitch>          <step>F</step>          <octave>4</octave>        </pitch>        <duration>1</duration>        <voice>1</voice>        <type>eighth</type>        <stem>down</stem>        <beam number="1">begin</beam>      </note>      <note>        <pitch>          <step>G</step>          <octave>4</octave>        </pitch>        <duration>1</duration>        <voice>1</voice>        <type>eighth</type>        <stem>down</stem>        <beam number="1">end</beam>      </note>    </measure>    <!--=======================================================-->    <measure number="4">      <note>        <pitch>          <step>A</step>          <octave>4</octave>        </pitch>        <duration>2</duration>        <voice>1</voice>        <type>quarter</type>        <stem>down</stem>      </note>      <note>        <pitch>          <step>D</step>          <octave>4</octave>        </pitch>        <duration>1</duration>        <voice>1</voice>        <type>eighth</type>        <stem>down</stem>        <beam number="1">begin</beam>      </note>      <note>        <pitch>          <step>E</step>          <octave>4</octave>        </pitch>        <duration>1</duration>        <voice>1</voice>        <type>eighth</type>        <stem>down</stem>        <beam number="1">end</beam>      </note>    </measure>    <!--=======================================================-->    <measure number="5">      <print new-system="yes"/>      <note>        <pitch>          <step>G</step>          <octave>4</octave>        </pitch>        <duration>1</duration>        <voice>1</voice>        <type>eighth</type>        <stem>down</stem>      </note>      <note>        <pitch>          <step>F</step>          <octave>4</octave>        </pitch>        <duration>2</duration>        <voice>1</voice>        <type>quarter</type>        <stem>down</stem>      </note>      <note>        <pitch>          <step>E</step>          <octave>4</octave>        </pitch>        <duration>1</duration>        <voice>1</voice>        <type>eighth</type>        <stem>down</stem>      </note>    </measure>    <!--=======================================================-->    <measure number="6">      <note>        <pitch>          <step>D</step>          <octave>4</octave>        </pitch>        <duration>2</duration>        <voice>1</voice>        <type>quarter</type>        <stem>down</stem>      </note>      <note>        <pitch>          <step>C</step>          <octave>4</octave>        </pitch>        <duration>1</duration>        <voice>1</voice>        <type>eighth</type>        <stem>down</stem>        <beam number="1">begin</beam>      </note>      <note>        <pitch>          <step>D</step>          <octave>4</octave>        </pitch>        <duration>1</duration>        <voice>1</voice>        <type>eighth</type>        <stem>down</stem>        <beam number="1">end</beam>      </note>    </measure>    <!--=======================================================-->    <measure number="7">      <note>        <rest/>        <duration>1</duration>        <voice>1</voice>        <type>eighth</type>      </note>      <note>        <pitch>          <step>C</step>          <octave>4</octave>        </pitch>        <duration>1</duration>        <voice>1</voice>        <type>eighth</type>        <stem>down</stem>      </note>      <note>        <pitch>          <step>E</step>          <octave>4</octave>        </pitch>        <duration>1</duration>        <voice>1</voice>        <type>eighth</type>        <stem>down</stem>        <beam number="1">begin</beam>      </note>      <note>        <pitch>          <step>C</step>          <octave>4</octave>        </pitch>        <duration>1</duration>        <voice>1</voice>        <type>eighth</type>        <stem>down</stem>        <beam number="1">end</beam>      </note>    </measure>    <!--=======================================================-->    <measure number="8">      <print new-system="yes"/>      <note>        <pitch>          <step>D</step>          <octave>4</octave>        </pitch>        <duration>1</duration>        <voice>1</voice>        <type>eighth</type>        <stem>down</stem>      </note>      <note>        <pitch>          <step>D</step>          <octave>4</octave>        </pitch>        <duration>2</duration>        <voice>1</voice>        <type>quarter</type>        <stem>down</stem>      </note>      <note>        <pitch>          <step>D</step>          <octave>4</octave>        </pitch>        <duration>1</duration>        <voice>1</voice>        <type>eighth</type>        <stem>down</stem>      </note>    </measure>    <!--=======================================================-->    <measure number="9">      <print new-page="yes"/>      <note>        <pitch>          <step>C</step>          <octave>4</octave>        </pitch>        <duration>1</duration>        <voice>1</voice>        <type>eighth</type>        <stem>down</stem>      </note>      <note>        <pitch>          <step>G</step>          <octave>3</octave>        </pitch>        <duration>2</duration>        <voice>1</voice>        <type>quarter</type>        <stem>up</stem>      </note>      <note>        <pitch>          <step>C</step>          <octave>4</octave>        </pitch>        <duration>1</duration>        <voice>1</voice>        <type>eighth</type>        <stem>down</stem>      </note>    </measure>    <!--=======================================================-->    <measure number="10">      <print new-system="yes"/>      <note>        <pitch>          <step>G</step>          <octave>3</octave>        </pitch>        <duration>2</duration>        <voice>1</voice>        <type>quarter</type>        <stem>up</stem>      </note>      <note>        <rest/>        <duration>2</duration>        <voice>1</voice>        <type>quarter</type>      </note>    </measure>    <!--=======================================================-->    <measure number="11">      <note>        <pitch>          <step>F</step>          <alter>1</alter>          <octave>4</octave>        </pitch>        <duration>4</duration>        <voice>1</voice>        <type>half</type>        <accidental>sharp</accidental>        <stem>down</stem>      </note>    </measure>    <!--=======================================================-->    <measure number="12">      <note>        <pitch>          <step>G</step>          <octave>4</octave>        </pitch>        <duration>3</duration>        <voice>1</voice>        <type>quarter</type>        <dot/>        <stem>down</stem>      </note>      <note>        <pitch>          <step>E</step>          <octave>4</octave>        </pitch>        <duration>1</duration>        <voice>1</voice>        <type>eighth</type>        <stem>down</stem>      </note>    </measure>    <!--=======================================================-->    <measure number="13">      <print new-system="yes"/>      <note>        <pitch>          <step>F</step>          <octave>4</octave>        </pitch>        <duration>1</duration>        <voice>1</voice>        <type>eighth</type>        <stem>down</stem>        <beam number="1">begin</beam>      </note>      <note>        <pitch>          <step>G</step>          <octave>4</octave>        </pitch>        <duration>1</duration>        <voice>1</voice>        <type>eighth</type>        <stem>down</stem>        <beam number="1">end</beam>      </note>      <note>        <pitch>          <step>A</step>          <octave>4</octave>        </pitch>        <duration>1</duration>        <voice>1</voice>        <type>eighth</type>        <stem>down</stem>        <beam number="1">begin</beam>      </note>      <note>        <pitch>          <step>A</step>          <octave>4</octave>        </pitch>        <duration>1</duration>        <voice>1</voice>        <type>eighth</type>        <stem>down</stem>        <beam number="1">end</beam>      </note>    </measure>    <!--=======================================================-->    <measure number="14">      <note>        <pitch>          <step>A</step>          <octave>4</octave>        </pitch>        <duration>1</duration>        <voice>1</voice>        <type>eighth</type>        <stem>down</stem>        <beam number="1">begin</beam>      </note>      <note>        <pitch>          <step>A</step>          <octave>4</octave>        </pitch>        <duration>1</duration>        <voice>1</voice>        <type>eighth</type>        <stem>down</stem>        <beam number="1">end</beam>      </note>      <note>        <pitch>          <step>D</step>          <octave>4</octave>        </pitch>        <duration>1</duration>        <voice>1</voice>        <type>eighth</type>        <stem>down</stem>        <beam number="1">begin</beam>      </note>      <note>        <pitch>          <step>E</step>          <octave>4</octave>        </pitch>        <duration>1</duration>        <voice>1</voice>        <type>eighth</type>        <stem>down</stem>        <beam number="1">end</beam>      </note>    </measure>    <!--=======================================================-->    <measure number="15">      <note>        <pitch>          <step>F</step>          <alter>1</alter>          <octave>4</octave>        </pitch>        <duration>4</duration>        <voice>1</voice>        <type>half</type>        <accidental>sharp</accidental>        <stem>down</stem>      </note>    </measure>    <!--=======================================================-->    <measure number="16">      <print new-page="yes"/>      <note>        <pitch>          <step>G</step>          <octave>4</octave>        </pitch>        <duration>2</duration>        <voice>1</voice>        <type>quarter</type>        <stem>down</stem>      </note>      <note>        <pitch>          <step>A</step>          <octave>4</octave>        </pitch>        <duration>2</duration>        <voice>1</voice>        <type>quarter</type>        <stem>down</stem>      </note>    </measure>    <!--=======================================================-->    <measure number="17">      <note>        <rest/>        <duration>2</duration>        <voice>1</voice>        <type>quarter</type>      </note>      <note>        <pitch>          <step>E</step>          <octave>4</octave>        </pitch>        <duration>1</duration>        <voice>1</voice>        <type>eighth</type>        <stem>down</stem>        <beam number="1">begin</beam>      </note>      <note>        <pitch>          <step>D</step>          <octave>4</octave>        </pitch>        <duration>1</duration>        <voice>1</voice>        <type>eighth</type>        <stem>down</stem>        <beam number="1">end</beam>      </note>    </measure>    <!--=======================================================-->    <measure number="18">      <note>        <pitch>          <step>E</step>          <octave>4</octave>        </pitch>        <duration>1</duration>        <voice>1</voice>        <type>eighth</type>        <stem>down</stem>        <beam number="1">begin</beam>      </note>      <note>        <pitch>          <step>F</step>          <octave>4</octave>        </pitch>        <duration>1</duration>        <voice>1</voice>        <type>eighth</type>        <stem>down</stem>        <beam number="1">end</beam>      </note>      <note>        <pitch>          <step>G</step>          <octave>4</octave>        </pitch>        <duration>1</duration>        <voice>1</voice>        <type>eighth</type>        <stem>down</stem>        <beam number="1">begin</beam>      </note>      <note>        <pitch>          <step>F</step>          <octave>4</octave>        </pitch>        <duration>1</duration>        <voice>1</voice>        <type>eighth</type>        <stem>down</stem>        <beam number="1">end</beam>      </note>    </measure>    <!--=======================================================-->    <measure number="19">      <print new-system="yes"/>      <note>        <pitch>          <step>A</step>          <octave>4</octave>        </pitch>        <duration>1</duration>        <voice>1</voice>        <type>eighth</type>        <stem>down</stem>      </note>      <note>        <pitch>          <step>F</step>          <octave>4</octave>        </pitch>        <duration>2</duration>        <voice>1</voice>        <type>quarter</type>        <stem>down</stem>      </note>      <note>        <pitch>          <step>E</step>          <octave>4</octave>        </pitch>        <duration>1</duration>        <voice>1</voice>        <type>eighth</type>        <stem>down</stem>      </note>    </measure>    <!--=======================================================-->    <measure number="20">      <note>        <pitch>          <step>D</step>          <octave>4</octave>        </pitch>        <duration>1</duration>        <voice>1</voice>        <type>eighth</type>        <stem>down</stem>      </note>      <note>        <rest/>        <duration>1</duration>        <voice>1</voice>        <type>eighth</type>      </note>      <note>        <rest/>        <duration>1</duration>        <voice>1</voice>        <type>eighth</type>      </note>      <note>        <pitch>          <step>C</step>          <octave>4</octave>        </pitch>        <duration>1</duration>        <voice>1</voice>        <type>eighth</type>        <stem>down</stem>      </note>    </measure>    <!--=======================================================-->    <measure number="21">      <note>        <pitch>          <step>G</step>          <octave>3</octave>        </pitch>        <duration>1</duration>        <voice>1</voice>        <type>eighth</type>        <stem>up</stem>        <beam number="1">begin</beam>      </note>      <note>        <pitch>          <step>C</step>          <octave>4</octave>        </pitch>        <duration>1</duration>        <voice>1</voice>        <type>eighth</type>        <stem>up</stem>        <beam number="1">end</beam>      </note>      <note>        <rest/>        <duration>1</duration>        <voice>1</voice>        <type>eighth</type>      </note>      <note>        <pitch>          <step>A</step>          <octave>4</octave>        </pitch>        <duration>1</duration>        <voice>1</voice>        <type>eighth</type>        <stem>down</stem>      </note>    </measure>    <!--=======================================================-->    <measure number="22">      <print new-system="yes"/>      <note>        <pitch>          <step>A</step>          <octave>4</octave>        </pitch>        <duration>2</duration>        <voice>1</voice>        <type>quarter</type>        <stem>down</stem>      </note>      <note>        <rest/>        <duration>1</duration>        <voice>1</voice>        <type>eighth</type>      </note>      <note>        <pitch>          <step>G</step>          <octave>4</octave>        </pitch>        <duration>1</duration>        <voice>1</voice>        <type>eighth</type>        <stem>down</stem>      </note>    </measure>    <!--=======================================================-->    <measure number="23">      <note>        <pitch>          <step>A</step>          <octave>4</octave>        </pitch>        <duration>2</duration>        <voice>1</voice>        <type>quarter</type>        <stem>down</stem>      </note>      <note>        <pitch>          <step>D</step>          <octave>4</octave>        </pitch>        <duration>2</duration>        <voice>1</voice>        <type>quarter</type>        <stem>down</stem>      </note>    </measure>    <!--=======================================================-->    <measure number="24">      <note>        <rest/>        <duration>1</duration>        <voice>1</voice>        <type>eighth</type>      </note>      <note>        <pitch>          <step>E</step>          <octave>4</octave>        </pitch>        <duration>1</duration>        <voice>1</voice>        <type>eighth</type>        <stem>down</stem>      </note>      <note>        <pitch>          <step>G</step>          <octave>4</octave>        </pitch>        <duration>2</duration>        <voice>1</voice>        <type>quarter</type>        <stem>down</stem>      </note>    </measure>    <!--=======================================================-->    <measure number="25">      <print new-page="yes"/>      <note>        <pitch>          <step>F</step>          <alter>1</alter>          <octave>4</octave>        </pitch>        <duration>8</duration>        <voice>1</voice>        <type>whole</type>        <accidental>sharp</accidental>      </note>    </measure>    <!--=======================================================-->    <measure number="26">      <note>        <rest/>        <duration>4</duration>        <voice>1</voice>      </note>    </measure>    <!--=======================================================-->    <measure number="27">      <note>        <rest/>        <duration>4</duration>        <voice>1</voice>      </note>    </measure>    <!--=======================================================-->    <measure number="28">      <print new-system="yes"/>      <note>        <rest/>        <duration>4</duration>        <voice>1</voice>      </note>    </measure>  </part>  <!--=========================================================-->  <part id="P2">    <measure number="1">      <attributes>        <divisions>2</divisions>        <key>          <fifths>-1</fifths>          <mode>major</mode>        </key>        <time>          <beats>2</beats>          <beat-type>4</beat-type>        </time>        <clef>          <sign>C</sign>          <line>3</line>        </clef>      </attributes>      <sound tempo="96"/>      <note>        <pitch>          <step>D</step>          <octave>4</octave>        </pitch>        <duration>4</duration>        <voice>1</voice>        <type>half</type>        <stem>down</stem>      </note>    </measure>    <!--=======================================================-->    <measure number="2">      <note>        <pitch>          <step>C</step>          <octave>4</octave>        </pitch>        <duration>3</duration>        <voice>1</voice>        <type>quarter</type>        <dot/>        <stem>down</stem>      </note>      <note>        <pitch>          <step>D</step>          <octave>4</octave>        </pitch>        <duration>1</duration>        <voice>1</voice>        <type>eighth</type>        <stem>down</stem>      </note>    </measure>    <!--=======================================================-->    <measure number="3">      <note>        <pitch>          <step>C</step>          <octave>4</octave>        </pitch>        <duration>1</duration>        <voice>1</voice>        <type>eighth</type>        <stem>down</stem>        <beam number="1">begin</beam>      </note>      <note>        <pitch>          <step>D</step>          <octave>4</octave>        </pitch>        <duration>1</duration>        <voice>1</voice>        <type>eighth</type>        <stem>down</stem>        <beam number="1">end</beam>      </note>      <note>        <pitch>          <step>E</step>          <octave>4</octave>        </pitch>        <duration>1</duration>        <voice>1</voice>        <type>eighth</type>        <stem>down</stem>      </note>      <note>        <pitch>          <step>D</step>          <octave>4</octave>        </pitch>        <duration>2</duration>        <voice>1</voice>        <type>quarter</type>        <stem>down</stem>      </note>    </measure>    <!--=======================================================-->    <measure number="4">      <note print-object="no">        <cue/>        <pitch>          <step>D</step>          <octave>4</octave>        </pitch>        <duration>1</duration>        <voice>1</voice>        <type size="full">eighth</type>        <stem>down</stem>      </note>      <note>        <pitch>          <step>C</step>          <octave>4</octave>        </pitch>        <duration>2</duration>        <voice>1</voice>        <type>quarter</type>        <stem>down</stem>      </note>      <note>        <pitch>          <step>B</step>          <alter>-1</alter>          <octave>3</octave>        </pitch>        <duration>1</duration>        <voice>1</voice>        <type>eighth</type>        <stem>up</stem>      </note>    </measure>    <!--=======================================================-->    <measure number="5">      <print new-system="yes"/>      <note>        <pitch>          <step>A</step>          <octave>3</octave>        </pitch>        <duration>3</duration>        <voice>1</voice>        <type>quarter</type>        <dot/>        <stem>up</stem>      </note>      <note>        <pitch>          <step>B</step>          <alter>-1</alter>          <octave>3</octave>        </pitch>        <duration>1</duration>        <voice>1</voice>        <type>eighth</type>        <stem>up</stem>      </note>    </measure>    <!--=======================================================-->    <measure number="6">      <note>        <pitch>          <step>G</step>          <octave>3</octave>        </pitch>        <duration>2</duration>        <voice>1</voice>        <type>quarter</type>        <stem>up</stem>      </note>      <note>        <rest/>        <duration>2</duration>        <voice>1</voice>        <type>quarter</type>      </note>    </measure>    <!--=======================================================-->    <measure number="7">      <note>        <rest/>        <duration>1</duration>        <voice>1</voice>        <type>eighth</type>      </note>      <note>        <pitch>          <step>F</step>          <octave>4</octave>        </pitch>        <duration>1</duration>        <voice>1</voice>        <type>eighth</type>        <stem>down</stem>      </note>      <note>        <pitch>          <step>F</step>          <octave>4</octave>        </pitch>        <duration>2</duration>        <voice>1</voice>        <type>quarter</type>        <stem>down</stem>      </note>    </measure>    <!--=======================================================-->    <measure number="8">      <print new-system="yes"/>      <note>        <pitch>          <step>G</step>          <octave>4</octave>        </pitch>        <duration>3</duration>        <voice>1</voice>        <type>quarter</type>        <dot/>        <stem>down</stem>      </note>      <note>        <pitch>          <step>E</step>          <octave>4</octave>        </pitch>        <duration>1</duration>        <voice>1</voice>        <type>eighth</type>        <stem>down</stem>      </note>    </measure>    <!--=======================================================-->    <measure number="9">      <print new-page="yes"/>      <note>        <pitch>          <step>D</step>          <octave>4</octave>        </pitch>        <duration>1</duration>        <voice>1</voice>        <type>eighth</type>        <stem>down</stem>      </note>      <note>        <pitch>          <step>E</step>          <octave>4</octave>        </pitch>        <duration>2</duration>        <voice>1</voice>        <type>quarter</type>        <stem>down</stem>      </note>      <note>        <pitch>          <step>C</step>          <octave>4</octave>        </pitch>        <duration>1</duration>        <voice>1</voice>        <type>eighth</type>        <stem>down</stem>      </note>    </measure>    <!--=======================================================-->    <measure number="10">      <print new-system="yes"/>      <note>        <pitch>          <step>D</step>          <octave>4</octave>        </pitch>        <duration>3</duration>        <voice>1</voice>        <type>quarter</type>        <dot/>        <stem>down</stem>      </note>      <note>        <pitch>          <step>G</step>          <octave>3</octave>        </pitch>        <duration>1</duration>        <voice>1</voice>        <type>eighth</type>        <stem>up</stem>      </note>    </measure>    <!--=======================================================-->    <measure number="11">      <note>        <pitch>          <step>A</step>          <octave>3</octave>        </pitch>        <duration>1</duration>        <voice>1</voice>        <type>eighth</type>        <stem>up</stem>        <beam number="1">begin</beam>      </note>      <note>        <pitch>          <step>A</step>          <octave>3</octave>        </pitch>        <duration>1</duration>        <voice>1</voice>        <type>eighth</type>        <stem>up</stem>        <beam number="1">end</beam>      </note>      <note>        <pitch>          <step>B</step>          <octave>3</octave>        </pitch>        <duration>1</duration>        <voice>1</voice>        <type>eighth</type>        <accidental>natural</accidental>        <stem>up</stem>        <beam number="1">begin</beam>      </note>      <note>        <pitch>          <step>B</step>          <octave>3</octave>        </pitch>        <duration>1</duration>        <voice>1</voice>        <type>eighth</type>        <stem>up</stem>        <beam number="1">end</beam>      </note>    </measure>    <!--=======================================================-->    <measure number="12">      <note>        <pitch>          <step>C</step>          <octave>4</octave>        </pitch>        <duration>2</duration>        <voice>1</voice>        <type>quarter</type>        <stem>down</stem>      </note>      <note>        <rest/>        <duration>2</duration>        <voice>1</voice>        <type>quarter</type>      </note>    </measure>    <!--=======================================================-->    <measure number="13">      <print new-system="yes"/>      <note>        <pitch>          <step>B</step>          <alter>-1</alter>          <octave>3</octave>        </pitch>        <duration>2</duration>        <voice>1</voice>        <type>quarter</type>        <stem>up</stem>      </note>      <note>        <pitch>          <step>A</step>          <octave>3</octave>        </pitch>        <duration>3</duration>        <voice>1</voice>        <type>quarter</type>        <dot/>        <stem>up</stem>      </note>    </measure>    <!--=======================================================-->    <measure number="14">      <note print-object="no">        <cue/>        <pitch>          <step>A</step>          <octave>3</octave>        </pitch>        <duration>1</duration>        <voice>1</voice>        <type size="full">eighth</type>        <stem>up</stem>        <beam number="1">begin</beam>      </note>      <note>        <pitch>          <step>B</step>          <alter>-1</alter>          <octave>3</octave>        </pitch>        <duration>1</duration>        <voice>1</voice>        <type>eighth</type>        <stem>up</stem>        <beam number="1">end</beam>      </note>      <note>        <pitch>          <step>G</step>          <octave>3</octave>        </pitch>        <duration>2</duration>        <voice>1</voice>        <type>quarter</type>        <stem>up</stem>      </note>    </measure>    <!--=======================================================-->    <measure number="15">      <note>        <pitch>          <step>F</step>          <alter>1</alter>          <octave>3</octave>        </pitch>        <duration>4</duration>        <voice>1</voice>        <type>half</type>        <accidental>sharp</accidental>        <stem>up</stem>      </note>    </measure>    <!--=======================================================-->    <measure number="16">      <print new-page="yes"/>      <note>        <pitch>          <step>B</step>          <alter>-1</alter>          <octave>3</octave>        </pitch>        <duration>1</duration>        <voice>1</voice>        <type>eighth</type>        <stem>up</stem>      </note>      <note>        <pitch>          <step>A</step>          <octave>3</octave>        </pitch>        <duration>2</duration>        <voice>1</voice>        <type>quarter</type>        <stem>up</stem>      </note>      <note>        <pitch>          <step>G</step>          <octave>3</octave>        </pitch>        <duration>1</duration>        <voice>1</voice>        <type>eighth</type>        <stem>up</stem>      </note>    </measure>    <!--=======================================================-->    <measure number="17">      <note>        <pitch>          <step>A</step>          <octave>3</octave>        </pitch>        <duration>3</duration>        <voice>1</voice>        <type>quarter</type>        <dot/>        <stem>up</stem>      </note>      <note>        <pitch>          <step>G</step>          <octave>3</octave>        </pitch>        <duration>1</duration>        <voice>1</voice>        <type>eighth</type>        <stem>up</stem>      </note>    </measure>    <!--=======================================================-->    <measure number="18">      <note>        <pitch>          <step>B</step>          <alter>-1</alter>          <octave>3</octave>        </pitch>        <duration>2</duration>        <voice>1</voice>        <type>quarter</type>        <stem>up</stem>      </note>      <note>        <pitch>          <step>C</step>          <octave>4</octave>        </pitch>        <duration>2</duration>        <voice>1</voice>        <type>quarter</type>        <stem>down</stem>      </note>    </measure>    <!--=======================================================-->    <measure number="19">      <print new-system="yes"/>      <note>        <pitch>          <step>D</step>          <octave>4</octave>        </pitch>        <duration>2</duration>        <voice>1</voice>        <type>quarter</type>        <stem>down</stem>      </note>      <note>        <rest/>        <duration>2</duration>        <voice>1</voice>        <type>quarter</type>      </note>    </measure>    <!--=======================================================-->    <measure number="20">      <note>        <pitch>          <step>E</step>          <octave>4</octave>        </pitch>        <duration>4</duration>        <voice>1</voice>        <type>half</type>        <stem>down</stem>      </note>    </measure>    <!--=======================================================-->    <measure number="21">      <note>        <pitch>          <step>G</step>          <octave>4</octave>        </pitch>        <duration>1</duration>        <voice>1</voice>        <type>eighth</type>        <stem>down</stem>        <beam number="1">begin</beam>      </note>      <note>        <pitch>          <step>F</step>          <octave>4</octave>        </pitch>        <duration>1</duration>        <voice>1</voice>        <type>eighth</type>        <stem>down</stem>        <beam number="1">end</beam>      </note>      <note>        <pitch>          <step>E</step>          <octave>4</octave>        </pitch>        <duration>1</duration>        <voice>1</voice>        <type>eighth</type>        <stem>down</stem>        <beam number="1">begin</beam>      </note>      <note>        <pitch>          <step>D</step>          <octave>4</octave>        </pitch>        <duration>1</duration>        <voice>1</voice>        <type>eighth</type>        <stem>down</stem>        <beam number="1">end</beam>      </note>    </measure>    <!--=======================================================-->    <measure number="22">      <print new-system="yes"/>      <note>        <pitch>          <step>C</step>          <octave>4</octave>        </pitch>        <duration>1</duration>        <voice>1</voice>        <type>eighth</type>        <stem>down</stem>      </note>      <note>        <pitch>          <step>D</step>          <octave>4</octave>        </pitch>        <duration>2</duration>        <voice>1</voice>        <type>quarter</type>        <stem>down</stem>      </note>      <note>        <pitch>          <step>B</step>          <alter>-1</alter>          <octave>3</octave>        </pitch>        <duration>1</duration>        <voice>1</voice>        <type>eighth</type>        <stem>up</stem>      </note>    </measure>    <!--=======================================================-->    <measure number="23">      <note>        <pitch>          <step>C</step>          <octave>4</octave>        </pitch>        <duration>1</duration>        <voice>1</voice>        <type>eighth</type>        <stem>down</stem>      </note>      <note>        <pitch>          <step>A</step>          <octave>3</octave>        </pitch>        <duration>2</duration>        <voice>1</voice>        <type>quarter</type>        <stem>up</stem>      </note>      <note>        <pitch>          <step>G</step>          <octave>3</octave>        </pitch>        <duration>1</duration>        <voice>1</voice>        <type>eighth</type>        <stem>up</stem>      </note>    </measure>    <!--=======================================================-->    <measure number="24">      <note>        <pitch>          <step>B</step>          <alter>-1</alter>          <octave>3</octave>        </pitch>        <duration>1</duration>        <voice>1</voice>        <type>eighth</type>        <stem>up</stem>        <beam number="1">begin</beam>      </note>      <note>        <pitch>          <step>A</step>          <octave>3</octave>        </pitch>        <duration>1</duration>        <voice>1</voice>        <type>eighth</type>        <stem>up</stem>        <beam number="1">end</beam>      </note>      <note>        <pitch>          <step>B</step>          <alter>-1</alter>          <octave>3</octave>        </pitch>        <duration>1</duration>        <voice>1</voice>        <type>eighth</type>        <stem>up</stem>        <beam number="1">begin</beam>      </note>      <note>        <pitch>          <step>C</step>          <octave>4</octave>        </pitch>        <duration>1</duration>        <voice>1</voice>        <type>eighth</type>        <stem>up</stem>        <beam number="1">end</beam>      </note>    </measure>    <!--=======================================================-->    <measure number="25">      <print new-page="yes"/>      <note>        <pitch>          <step>D</step>          <octave>4</octave>        </pitch>        <duration>8</duration>        <voice>1</voice>        <type>whole</type>      </note>    </measure>    <!--=======================================================-->    <measure number="26">      <note>        <rest/>        <duration>4</duration>        <voice>1</voice>      </note>    </measure>    <!--=======================================================-->    <measure number="27">      <note>        <rest/>        <duration>4</duration>        <voice>1</voice>      </note>    </measure>    <!--=======================================================-->    <measure number="28">      <print new-system="yes"/>      <note>        <rest/>        <duration>4</duration>        <voice>1</voice>      </note>    </measure>  </part>  <!--=========================================================-->  <part id="P3">    <measure number="1">      <attributes>        <divisions>2</divisions>        <key>          <fifths>-2</fifths>        </key>        <time>          <beats>2</beats>          <beat-type>4</beat-type>        </time>        <clef>          <sign>F</sign>          <line>4</line>        </clef>      </attributes>      <sound tempo="96"/>      <note>        <pitch>          <step>G</step>          <octave>3</octave>        </pitch>        <duration>1</duration>        <voice>1</voice>        <type>eighth</type>        <stem>down</stem>      </note>      <note>        <pitch>          <step>B</step>          <alter>-1</alter>          <octave>3</octave>        </pitch>        <duration>2</duration>        <voice>1</voice>        <type>quarter</type>        <stem>down</stem>      </note>      <note>        <pitch>          <step>B</step>          <alter>-1</alter>          <octave>3</octave>        </pitch>        <duration>1</duration>        <voice>1</voice>        <type>eighth</type>        <stem>down</stem>      </note>    </measure>    <!--=======================================================-->    <measure number="2">      <note>        <pitch>          <step>A</step>          <octave>3</octave>        </pitch>        <duration>1</duration>        <voice>1</voice>        <type>eighth</type>        <stem>down</stem>        <beam number="1">begin</beam>      </note>      <note>        <pitch>          <step>G</step>          <octave>3</octave>        </pitch>        <duration>1</duration>        <voice>1</voice>        <type>eighth</type>        <stem>down</stem>        <beam number="1">end</beam>      </note>      <note>        <rest/>        <duration>1</duration>        <voice>1</voice>        <type>eighth</type>      </note>      <note>        <pitch>          <step>G</step>          <octave>3</octave>        </pitch>        <duration>1</duration>        <voice>1</voice>        <type>eighth</type>        <stem>down</stem>      </note>    </measure>    <!--=======================================================-->    <measure number="3">      <note>        <pitch>          <step>C</step>          <octave>3</octave>        </pitch>        <duration>2</duration>        <voice>1</voice>        <type>quarter</type>        <stem>up</stem>      </note>      <note>        <rest/>        <duration>1</duration>        <voice>1</voice>        <type>eighth</type>      </note>      <note>        <pitch>          <step>E</step>          <alter>-1</alter>          <octave>3</octave>        </pitch>        <duration>1</duration>        <voice>1</voice>        <type>eighth</type>        <stem>down</stem>      </note>    </measure>    <!--=======================================================-->    <measure number="4">      <note>        <pitch>          <step>F</step>          <octave>3</octave>        </pitch>        <duration>1</duration>        <voice>1</voice>        <type>eighth</type>        <stem>down</stem>        <beam number="1">begin</beam>      </note>      <note>        <pitch>          <step>D</step>          <octave>3</octave>        </pitch>        <duration>1</duration>        <voice>1</voice>        <type>eighth</type>        <stem>down</stem>        <beam number="1">end</beam>      </note>      <note>        <rest/>        <duration>1</duration>        <voice>1</voice>        <type>eighth</type>      </note>      <note>        <pitch>          <step>E</step>          <alter>-1</alter>          <octave>3</octave>        </pitch>        <duration>1</duration>        <voice>1</voice>        <type>eighth</type>        <stem>down</stem>      </note>    </measure>    <!--=======================================================-->    <measure number="5">      <print new-system="yes"/>      <note>        <pitch>          <step>D</step>          <octave>3</octave>        </pitch>        <duration>3</duration>        <voice>1</voice>        <type>quarter</type>        <dot/>        <stem>down</stem>      </note>      <note>        <pitch>          <step>F</step>          <octave>3</octave>        </pitch>        <duration>1</duration>        <voice>1</voice>        <type>eighth</type>        <stem>down</stem>      </note>    </measure>    <!--=======================================================-->    <measure number="6">      <note>        <pitch>          <step>G</step>          <octave>3</octave>        </pitch>        <duration>1</duration>        <voice>1</voice>        <type>eighth</type>        <stem>down</stem>        <beam number="1">begin</beam>      </note>      <note>        <pitch>          <step>G</step>          <octave>3</octave>        </pitch>        <duration>1</duration>        <voice>1</voice>        <type>eighth</type>        <stem>down</stem>        <beam number="1">end</beam>      </note>      <note>        <pitch>          <step>A</step>          <octave>3</octave>        </pitch>        <duration>1</duration>        <voice>1</voice>        <type>eighth</type>        <stem>down</stem>        <beam number="1">begin</beam>      </note>      <note>        <pitch>          <step>G</step>          <octave>3</octave>        </pitch>        <duration>1</duration>        <voice>1</voice>        <type>eighth</type>        <stem>down</stem>        <beam number="1">end</beam>      </note>    </measure>    <!--=======================================================-->    <measure number="7">      <note>        <pitch>          <step>F</step>          <octave>3</octave>        </pitch>        <duration>2</duration>        <voice>1</voice>        <type>quarter</type>        <stem>down</stem>      </note>      <note>        <pitch>          <step>C</step>          <octave>3</octave>        </pitch>        <duration>3</duration>        <voice>1</voice>        <type>quarter</type>        <dot/>        <stem>up</stem>      </note>    </measure>    <!--=======================================================-->    <measure number="8">      <print new-system="yes"/>      <note print-object="no">        <cue/>        <pitch>          <step>C</step>          <octave>3</octave>        </pitch>        <duration>1</duration>        <voice>1</voice>        <type size="full">eighth</type>        <stem>up</stem>        <beam number="1">begin</beam>      </note>      <note>        <pitch>          <step>D</step>          <octave>3</octave>        </pitch>        <duration>1</duration>        <voice>1</voice>        <type>eighth</type>        <stem>down</stem>        <beam number="1">end</beam>      </note>      <note>        <pitch>          <step>E</step>          <alter>-1</alter>          <octave>3</octave>        </pitch>        <duration>1</duration>        <voice>1</voice>        <type>eighth</type>        <stem>down</stem>        <beam number="1">begin</beam>      </note>      <note>        <pitch>          <step>G</step>          <octave>3</octave>        </pitch>        <duration>1</duration>        <voice>1</voice>        <type>eighth</type>        <stem>down</stem>        <beam number="1">end</beam>      </note>    </measure>    <!--=======================================================-->    <measure number="9">      <print new-page="yes"/>      <note>        <pitch>          <step>F</step>          <octave>3</octave>        </pitch>        <duration>1</duration>        <voice>1</voice>        <type>eighth</type>        <stem>down</stem>        <beam number="1">begin</beam>      </note>      <note>        <pitch>          <step>C</step>          <octave>3</octave>        </pitch>        <duration>1</duration>        <voice>1</voice>        <type>eighth</type>        <stem>down</stem>        <beam number="1">end</beam>      </note>      <note>        <pitch>          <step>C</step>          <octave>3</octave>        </pitch>        <duration>1</duration>        <voice>1</voice>        <type>eighth</type>        <stem>up</stem>      </note>      <note>        <rest/>        <duration>1</duration>        <voice>1</voice>        <type>eighth</type>      </note>    </measure>    <!--=======================================================-->    <measure number="10">      <print new-system="yes"/>      <note>        <pitch>          <step>C</step>          <octave>3</octave>        </pitch>        <duration>1</duration>        <voice>1</voice>        <type>eighth</type>        <stem>down</stem>        <beam number="1">begin</beam>      </note>      <note>        <pitch>          <step>G</step>          <octave>3</octave>        </pitch>        <duration>1</duration>        <voice>1</voice>        <type>eighth</type>        <stem>down</stem>        <beam number="1">end</beam>      </note>      <note>        <pitch>          <step>G</step>          <octave>3</octave>        </pitch>        <duration>1</duration>        <voice>1</voice>        <type>eighth</type>        <stem>down</stem>      </note>    </measure>    <!--=======================================================-->    <measure number="11">      <note>        <rest/>        <duration>1</duration>        <voice>1</voice>        <type>eighth</type>      </note>      <note>        <pitch>          <step>B</step>          <alter>-1</alter>          <octave>3</octave>        </pitch>        <duration>1</duration>        <voice>1</voice>        <type>eighth</type>        <stem>down</stem>      </note>      <note>        <pitch>          <step>F</step>          <octave>3</octave>        </pitch>        <duration>2</duration>        <voice>1</voice>        <type>quarter</type>        <stem>down</stem>      </note>    </measure>    <!--=======================================================-->    <measure number="12">      <note>        <pitch>          <step>G</step>          <octave>3</octave>        </pitch>        <duration>2</duration>        <voice>1</voice>        <type>quarter</type>        <stem>down</stem>      </note>      <note>        <pitch>          <step>G</step>          <octave>3</octave>        </pitch>        <duration>1</duration>        <voice>1</voice>        <type>eighth</type>        <stem>down</stem>      </note>      <note>        <rest/>        <duration>1</duration>        <voice>1</voice>        <type>eighth</type>      </note>    </measure>    <!--=======================================================-->    <measure number="13">      <print new-system="yes"/>      <note>        <pitch>          <step>E</step>          <alter>-1</alter>          <octave>3</octave>        </pitch>        <duration>1</duration>        <voice>1</voice>        <type>eighth</type>        <stem>down</stem>        <beam number="1">begin</beam>      </note>      <note>        <pitch>          <step>F</step>          <octave>3</octave>        </pitch>        <duration>1</duration>        <voice>1</voice>        <type>eighth</type>        <stem>down</stem>        <beam number="1">end</beam>      </note>      <note>        <pitch>          <step>D</step>          <octave>3</octave>        </pitch>        <duration>2</duration>        <voice>1</voice>        <type>quarter</type>        <stem>down</stem>      </note>    </measure>    <!--=======================================================-->    <measure number="14">      <note>        <rest/>        <duration>4</duration>        <voice>1</voice>      </note>    </measure>    <!--=======================================================-->    <measure number="15">      <note>        <pitch>          <step>F</step>          <octave>3</octave>        </pitch>        <duration>1</duration>        <voice>1</voice>        <type>eighth</type>        <stem>down</stem>      </note>      <note>        <pitch>          <step>D</step>          <octave>3</octave>        </pitch>        <duration>2</duration>        <voice>1</voice>        <type>quarter</type>        <stem>down</stem>      </note>      <note>        <pitch>          <step>D</step>          <octave>3</octave>        </pitch>        <duration>1</duration>        <voice>1</voice>        <type>eighth</type>        <stem>down</stem>      </note>    </measure>    <!--=======================================================-->    <measure number="16">      <print new-page="yes"/>      <note>        <pitch>          <step>C</step>          <octave>3</octave>        </pitch>        <duration>1</duration>        <voice>1</voice>        <type>eighth</type>        <stem>down</stem>        <beam number="1">begin</beam>      </note>      <note>        <pitch>          <step>E</step>          <alter>-1</alter>          <octave>3</octave>        </pitch>        <duration>1</duration>        <voice>1</voice>        <type>eighth</type>        <stem>down</stem>        <beam number="1">end</beam>      </note>      <note>        <pitch>          <step>D</step>          <octave>3</octave>        </pitch>        <duration>4</duration>        <voice>1</voice>        <type>half</type>        <stem>down</stem>      </note>    </measure>    <!--=======================================================-->    <measure number="17">      <note print-object="no">        <cue/>        <pitch>          <step>D</step>          <octave>3</octave>        </pitch>        <duration>2</duration>        <voice>1</voice>        <type size="full">quarter</type>        <stem>down</stem>      </note>      <note>        <pitch>          <step>C</step>          <octave>3</octave>        </pitch>        <duration>1</duration>        <voice>1</voice>        <type>eighth</type>        <stem>up</stem>      </note>      <note>        <rest/>        <duration>1</duration>        <voice>1</voice>        <type>eighth</type>      </note>    </measure>    <!--=======================================================-->    <measure number="18">      <note>        <rest/>        <duration>2</duration>        <voice>1</voice>        <type>quarter</type>      </note>      <note>        <pitch>          <step>A</step>          <octave>3</octave>        </pitch>        <duration>1</duration>        <voice>1</voice>        <type>eighth</type>        <stem>down</stem>        <beam number="1">begin</beam>      </note>      <note>        <pitch>          <step>G</step>          <octave>3</octave>        </pitch>        <duration>1</duration>        <voice>1</voice>        <type>eighth</type>        <stem>down</stem>        <beam number="1">end</beam>      </note>    </measure>    <!--=======================================================-->    <measure number="19">      <print new-system="yes"/>      <note>        <pitch>          <step>A</step>          <octave>3</octave>        </pitch>        <duration>2</duration>        <voice>1</voice>        <type>quarter</type>        <stem>down</stem>      </note>      <note>        <pitch>          <step>B</step>          <octave>3</octave>        </pitch>        <duration>2</duration>        <voice>1</voice>        <type>quarter</type>        <accidental>natural</accidental>        <stem>down</stem>      </note>    </measure>    <!--=======================================================-->    <measure number="20">      <note>        <pitch>          <step>C</step>          <octave>4</octave>        </pitch>        <duration>1</duration>        <voice>1</voice>        <type>eighth</type>        <stem>down</stem>      </note>      <note>        <pitch>          <step>C</step>          <octave>3</octave>        </pitch>        <duration>2</duration>        <voice>1</voice>        <type>quarter</type>        <stem>up</stem>      </note>      <note>        <pitch>          <step>C</step>          <octave>3</octave>        </pitch>        <duration>1</duration>        <voice>1</voice>        <type>eighth</type>        <stem>up</stem>      </note>    </measure>    <!--=======================================================-->    <measure number="21">      <note>        <rest/>        <duration>1</duration>        <voice>1</voice>        <type>eighth</type>      </note>      <note>        <pitch>          <step>D</step>          <octave>4</octave>        </pitch>        <duration>1</duration>        <voice>1</voice>        <type>eighth</type>        <stem>down</stem>      </note>      <note>        <pitch>          <step>D</step>          <octave>4</octave>        </pitch>        <duration>1</duration>        <voice>1</voice>        <type>eighth</type>        <stem>down</stem>        <beam number="1">begin</beam>      </note>      <note>        <pitch>          <step>G</step>          <octave>3</octave>        </pitch>        <duration>1</duration>        <voice>1</voice>        <type>eighth</type>        <stem>down</stem>        <beam number="1">end</beam>      </note>    </measure>    <!--=======================================================-->    <measure number="22">      <print new-system="yes"/>      <note>        <pitch>          <step>B</step>          <alter>-1</alter>          <octave>3</octave>        </pitch>        <duration>3</duration>        <voice>1</voice>        <type>quarter</type>        <dot/>        <stem>down</stem>      </note>      <note>        <pitch>          <step>B</step>          <alter>-1</alter>          <octave>3</octave>        </pitch>        <duration>1</duration>        <voice>1</voice>        <type>eighth</type>        <stem>down</stem>      </note>    </measure>    <!--=======================================================-->    <measure number="23">      <note>        <pitch>          <step>A</step>          <octave>3</octave>        </pitch>        <duration>1</duration>        <voice>1</voice>        <type>eighth</type>        <stem>down</stem>      </note>      <note>        <pitch>          <step>C</step>          <octave>4</octave>        </pitch>        <duration>3</duration>        <voice>1</voice>        <type>quarter</type>        <dot/>        <stem>down</stem>      </note>    </measure>    <!--=======================================================-->    <measure number="24">      <note>        <pitch>          <step>B</step>          <alter>-1</alter>          <octave>3</octave>        </pitch>        <duration>1</duration>        <voice>1</voice>        <type>eighth</type>        <stem>down</stem>      </note>      <note>        <pitch>          <step>G</step>          <octave>3</octave>        </pitch>        <duration>2</duration>        <voice>1</voice>        <type>quarter</type>        <stem>down</stem>      </note>      <note>        <pitch>          <step>F</step>          <octave>3</octave>        </pitch>        <duration>1</duration>        <voice>1</voice>        <type>eighth</type>        <stem>down</stem>      </note>    </measure>    <!--=======================================================-->    <measure number="25">      <print new-page="yes"/>      <note>        <pitch>          <step>A</step>          <octave>3</octave>        </pitch>        <duration>8</duration>        <voice>1</voice>        <type>whole</type>      </note>    </measure>    <!--=======================================================-->    <measure number="26">      <note>        <rest/>        <duration>4</duration>        <voice>1</voice>      </note>    </measure>    <!--=======================================================-->    <measure number="27">      <note>        <rest/>        <duration>4</duration>        <voice>1</voice>      </note>    </measure>    <!--=======================================================-->    <measure number="28">      <print new-system="yes"/>      <note>        <rest/>        <duration>4</duration>        <voice>1</voice>      </note>    </measure>  </part>  <!--=========================================================-->  <part id="P4">    <measure number="1">      <attributes>        <divisions>2</divisions>        <key>          <fifths>-2</fifths>        </key>        <time>          <beats>2</beats>          <beat-type>4</beat-type>        </time>        <clef>          <sign>F</sign>          <line>4</line>        </clef>      </attributes>      <sound tempo="96"/>      <note>        <pitch>          <step>G</step>          <octave>3</octave>        </pitch>        <duration>4</duration>        <voice>1</voice>        <type>half</type>        <stem>down</stem>      </note>    </measure>    <!--=======================================================-->    <measure number="2">      <note>        <pitch>          <step>C</step>          <octave>3</octave>        </pitch>        <duration>4</duration>        <voice>1</voice>        <type>half</type>        <stem>up</stem>      </note>    </measure>    <!--=======================================================-->    <measure number="3">      <note>        <pitch>          <step>C</step>          <octave>4</octave>        </pitch>        <duration>2</duration>        <voice>1</voice>        <type>quarter</type>        <stem>down</stem>      </note>      <note>        <pitch>          <step>B</step>          <alter>-1</alter>          <octave>3</octave>        </pitch>        <duration>2</duration>        <voice>1</voice>        <type>quarter</type>        <stem>down</stem>      </note>    </measure>    <!--=======================================================-->    <measure number="4">      <note>        <pitch>          <step>A</step>          <octave>3</octave>        </pitch>        <duration>2</duration>        <voice>1</voice>        <type>quarter</type>        <stem>down</stem>      </note>      <note>        <pitch>          <step>G</step>          <octave>3</octave>        </pitch>        <duration>2</duration>        <voice>1</voice>        <type>quarter</type>        <stem>down</stem>      </note>    </measure>    <!--=======================================================-->    <measure number="5">      <print new-system="yes"/>      <note>        <pitch>          <step>F</step>          <octave>3</octave>        </pitch>        <duration>4</duration>        <voice>1</voice>        <type>half</type>        <stem>down</stem>      </note>    </measure>    <!--=======================================================-->    <measure number="6">      <note>        <rest/>        <duration>1</duration>        <voice>1</voice>        <type>eighth</type>      </note>      <note>        <pitch>          <step>B</step>          <octave>3</octave>        </pitch>        <duration>1</duration>        <voice>1</voice>        <type>eighth</type>        <accidental>natural</accidental>        <stem>down</stem>      </note>      <note>        <pitch>          <step>C</step>          <octave>4</octave>        </pitch>        <duration>3</duration>        <voice>1</voice>        <type>quarter</type>        <dot/>        <stem>down</stem>      </note>    </measure>    <!--=======================================================-->    <measure number="7">      <note print-object="no">        <cue/>        <pitch>          <step>C</step>          <octave>4</octave>        </pitch>        <duration>1</duration>        <voice>1</voice>        <type size="full">eighth</type>        <stem>down</stem>      </note>      <note>        <pitch>          <step>B</step>          <alter>-1</alter>          <octave>3</octave>        </pitch>        <duration>2</duration>        <voice>1</voice>        <type>quarter</type>        <stem>down</stem>      </note>      <note>        <pitch>          <step>A</step>          <octave>3</octave>        </pitch>        <duration>1</duration>        <voice>1</voice>        <type>eighth</type>        <stem>down</stem>      </note>    </measure>    <!--=======================================================-->    <measure number="8">      <print new-system="yes"/>      <note>        <pitch>          <step>G</step>          <octave>3</octave>        </pitch>        <duration>4</duration>        <voice>1</voice>        <type>half</type>        <stem>down</stem>      </note>    </measure>    <!--=======================================================-->    <measure number="9">      <print new-page="yes"/>      <note>        <pitch>          <step>C</step>          <octave>3</octave>        </pitch>        <duration>4</duration>        <voice>1</voice>        <type>half</type>        <stem>up</stem>      </note>    </measure>    <!--=======================================================-->    <measure number="10">      <print new-system="yes"/>      <note>        <pitch>          <step>F</step>          <octave>3</octave>        </pitch>        <duration>4</duration>        <voice>1</voice>        <type>half</type>        <stem>down</stem>      </note>    </measure>    <!--=======================================================-->    <measure number="11">      <note>        <pitch>          <step>D</step>          <octave>3</octave>        </pitch>        <duration>4</duration>        <voice>1</voice>        <type>half</type>        <stem>down</stem>      </note>    </measure>    <!--=======================================================-->    <measure number="12">      <note>        <pitch>          <step>C</step>          <octave>3</octave>        </pitch>        <duration>4</duration>        <voice>1</voice>        <type>half</type>        <stem>up</stem>      </note>    </measure>    <!--=======================================================-->    <measure number="13">      <print new-system="yes"/>      <note>        <pitch>          <step>G</step>          <octave>3</octave>        </pitch>        <duration>2</duration>        <voice>1</voice>        <type>quarter</type>        <stem>down</stem>      </note>      <note>        <pitch>          <step>F</step>          <alter>1</alter>          <octave>3</octave>        </pitch>        <duration>4</duration>        <voice>1</voice>        <type>half</type>        <accidental>sharp</accidental>        <stem>down</stem>      </note>    </measure>    <!--=======================================================-->    <measure number="14">      <note print-object="no">        <cue/>        <pitch>          <step>F</step>          <octave>3</octave>        </pitch>        <duration>2</duration>        <voice>1</voice>        <type size="full">quarter</type>        <stem>down</stem>      </note>      <note>        <pitch>          <step>B</step>          <alter>-1</alter>          <octave>3</octave>        </pitch>        <duration>2</duration>        <voice>1</voice>        <type>quarter</type>        <accidental>flat</accidental>        <stem>down</stem>      </note>    </measure>    <!--=======================================================-->    <measure number="15">      <note>        <pitch>          <step>A</step>          <octave>3</octave>        </pitch>        <duration>3</duration>        <voice>1</voice>        <type>quarter</type>        <dot/>        <stem>down</stem>      </note>      <note>        <pitch>          <step>B</step>          <alter>-1</alter>          <octave>3</octave>        </pitch>        <duration>1</duration>        <voice>1</voice>        <type>eighth</type>        <stem>down</stem>      </note>    </measure>    <!--=======================================================-->    <measure number="16">      <print new-page="yes"/>      <note>        <pitch>          <step>G</step>          <octave>3</octave>        </pitch>        <duration>2</duration>        <voice>1</voice>        <type>quarter</type>        <stem>down</stem>      </note>      <note>        <pitch>          <step>F</step>          <octave>3</octave>        </pitch>        <duration>4</duration>        <voice>1</voice>        <type>half</type>        <stem>down</stem>      </note>    </measure>    <!--=======================================================-->    <measure number="17">      <note print-object="no">        <cue/>        <pitch>          <step>F</step>          <octave>3</octave>        </pitch>        <duration>2</duration>        <voice>1</voice>        <type size="full">quarter</type>        <stem>down</stem>      </note>      <note>        <rest/>        <duration>1</duration>        <voice>1</voice>        <type>eighth</type>      </note>      <note>        <pitch>          <step>G</step>          <octave>3</octave>        </pitch>        <duration>2</duration>        <voice>1</voice>        <type>quarter</type>        <stem>down</stem>      </note>    </measure>    <!--=======================================================-->    <measure number="18">      <note print-object="no">        <cue/>        <pitch>          <step>G</step>          <octave>3</octave>        </pitch>        <duration>1</duration>        <voice>1</voice>        <type size="full">eighth</type>        <stem>down</stem>      </note>      <note>        <pitch>          <step>F</step>          <octave>3</octave>        </pitch>        <duration>2</duration>        <voice>1</voice>        <type>quarter</type>        <stem>down</stem>      </note>      <note>        <pitch>          <step>E</step>          <alter>-1</alter>          <octave>3</octave>        </pitch>        <duration>1</duration>        <voice>1</voice>        <type>eighth</type>        <stem>down</stem>      </note>    </measure>    <!--=======================================================-->    <measure number="19">      <print new-system="yes"/>      <note>        <pitch>          <step>D</step>          <octave>3</octave>        </pitch>        <duration>4</duration>        <voice>1</voice>        <type>half</type>        <stem>down</stem>      </note>    </measure>    <!--=======================================================-->    <measure number="20">      <note>        <rest/>        <duration>1</duration>        <voice>1</voice>        <type>eighth</type>      </note>      <note>        <pitch>          <step>C</step>          <octave>4</octave>        </pitch>        <duration>1</duration>        <voice>1</voice>        <type>eighth</type>        <stem>down</stem>      </note>      <note>        <pitch>          <step>C</step>          <octave>4</octave>        </pitch>        <duration>3</duration>        <voice>1</voice>        <type>quarter</type>        <dot/>        <stem>down</stem>      </note>    </measure>    <!--=======================================================-->    <measure number="21">      <note print-object="no">        <cue/>        <pitch>          <step>C</step>          <octave>4</octave>        </pitch>        <duration>1</duration>        <voice>1</voice>        <type size="full">eighth</type>        <stem>down</stem>      </note>      <note>        <pitch>          <step>A</step>          <octave>3</octave>        </pitch>        <duration>2</duration>        <voice>1</voice>        <type>quarter</type>        <stem>down</stem>      </note>      <note>        <pitch>          <step>B</step>          <alter>-1</alter>          <octave>3</octave>        </pitch>        <duration>1</duration>        <voice>1</voice>        <type>eighth</type>        <stem>down</stem>      </note>    </measure>    <!--=======================================================-->    <measure number="22">      <print new-system="yes"/>      <note>        <pitch>          <step>G</step>          <octave>3</octave>        </pitch>        <duration>4</duration>        <voice>1</voice>        <type>half</type>        <stem>down</stem>      </note>    </measure>    <!--=======================================================-->    <measure number="23">      <note>        <pitch>          <step>F</step>          <octave>3</octave>        </pitch>        <duration>4</duration>        <voice>1</voice>        <type>half</type>        <stem>down</stem>      </note>    </measure>    <!--=======================================================-->    <measure number="24">      <note>        <pitch>          <step>G</step>          <octave>3</octave>        </pitch>        <duration>2</duration>        <voice>1</voice>        <type>quarter</type>        <stem>down</stem>      </note>      <note>        <pitch>          <step>E</step>          <alter>-1</alter>          <octave>3</octave>        </pitch>        <duration>2</duration>        <voice>1</voice>        <type>quarter</type>        <stem>down</stem>      </note>    </measure>    <!--=======================================================-->    <measure number="25">      <print new-page="yes"/>      <note>        <pitch>          <step>D</step>          <octave>3</octave>        </pitch>        <duration>4</duration>        <voice>1</voice>        <type>half</type>        <stem>down</stem>      </note>    </measure>    <!--=======================================================-->    <measure number="26">      <note>        <rest/>        <duration>4</duration>        <voice>1</voice>      </note>    </measure>    <!--=======================================================-->    <measure number="27">      <note>        <rest/>        <duration>4</duration>        <voice>1</voice>      </note>    </measure>    <!--=======================================================-->    <measure number="28">      <print new-system="yes"/>      <note>        <rest/>        <duration>4</duration>        <voice>1</voice>      </note>    </measure>  </part>  <!--=========================================================--></score-partwise>